{
.appName = FontCreator;
.appVersion = "15.0.0.2992";
.formatVersion = 3;
axes = (
{
name = Pixel;
tag = PX;
}
);
customParameters = (
{
name = fsType;
value = (
);
},
{
name = "Use Typo Metrics";
value = 1;
},
{
name = "Variable Font Origin";
value = m000;
}
);
date = "2024-02-07 15:00:00";
familyName = "Sorena-FD";
featurePrefixes = (
{
automatic = 1;
code = "languagesystem DFLT dflt;
languagesystem arab dflt; # Arabic default
languagesystem arab FAR;  # Arabic Persian
languagesystem arab KUR;  # Arabic Kurdish
languagesystem arab URD;  # Arabic Urdu
";
name = Languagesystems;
},
{
code = "
#
# Global glyph class definitions
#

@MarkFilteringSet1 = [arabichamzabelowcomb arabickasracomb alefcomb-arab arabickasratancomb arabichamzacomb_arabickasracomb arabichamzacomb_arabickasratancomb];
@MarkFilteringSet2 = [arabichamzacomb arabicfathacomb arabicdammacomb arabicdammatancomb arabicshaddacomb arabicalefcomb arabicsukuncomb arabicfathatancomb arabichamzacomb_arabicdammacomb arabichamzacomb_arabicdammatancomb arabichamzacomb_arabicfathacomb arabichamzacomb_arabicfathatancomb smallquestionmark arabicshaddacomb_arabicfathatancomb shaddadammatan-arab.isol shaddafatha-arab.isol shaddadamma-arab.isol];

glyphs = (
{
glyphname = .notdef;
layers = (
{
layerId = m000;
shapes = (
{
closed = 1;
nodes = (
(560,640,l),
(560,0,l),
(80,0,l),
(80,640,l)
);
},
{
closed = 1;
nodes = (
(400,160,l),
(400,480,l),
(240,480,l),
(240,160,l)
);
}
);
width = 640;
}
);
},
{
glyphname = exclam;
layers = (
{
layerId = m000;
shapes = (
{
closed = 1;
nodes = (
(240,640,l),
(240,320,l),
(80,320,l),
(80,640,l)
);
},
{
closed = 1;
nodes = (
(240,160,l),
(240,0,l),
(80,0,l),
(80,160,l)
);
}
);
width = 320;
}
);
unicode = 33;
},
{
glyphname = question;
layers = (
{
layerId = m000;
shapes = (
{
closed = 1;
nodes = (
(560,480,l),
(560,320,l),
(400,320,l),
(400,160,l),
(80,160,l),
(80,320,l),
(400,320,l),
(400,480,l),
(80,480,l),
(80,640,l),
(400,640,l),
(400,480,l)
);
},
{
closed = 1;
nodes = (
(160,40,l),
(160,-80,l),
(320,-80,l),
(320,40,l)
);
}
);
width = 640;
}
);
unicode = 63;
},
{
glyphname = quoteleft;
layers = (
{
layerId = m000;
shapes = (
{
closed = 1;
nodes = (
(200,640,l),
(200,480,l),
(320,480,l),
(320,320,l),
(200,320,l),
(200,480,l),
(80,480,l),
(80,640,l)
);
}
);
width = 400;
}
);
unicode = 8216;
},
{
glyphname = quoteright;
layers = (
{
layerId = m000;
shapes = (
{
closed = 1;
nodes = (
(320,480,l),
(200,480,l),
(200,320,l),
(80,320,l),
(80,480,l),
(200,480,l),
(200,640,l),
(320,640,l)
);
}
);
width = 400;
}
);
unicode = 8217;
},
{
glyphname = quotesinglbase;
layers = (
{
layerId = m000;
shapes = (
{
closed = 1;
nodes = (
(200,0,l),
(200,-160,l),
(80,-160,l),
(80,0,l)
);
}
);
width = 280;
}
);
unicode = 8218;
},
{
glyphname = numbersign;
layers = (
{
layerId = m000;
shapes = (
{
closed = 1;
nodes = (
(720,640,l),
(720,480,l),
(880,480,l),
(880,320,l),
(720,320,l),
(720,160,l),
(880,160,l),
(880,0,l),
(720,0,l),
(720,-160,l),
(560,-160,l),
(560,0,l),
(400,0,l),
(400,-160,l),
(240,-160,l),
(240,0,l),
(80,0,l),
(80,160,l),
(240,160,l),
(240,320,l),
(80,320,l),
(80,480,l),
(240,480,l),
(240,640,l),
(400,640,l),
(400,480,l),
(560,480,l),
(560,640,l)
);
},
{
closed = 1;
nodes = (
(560,160,l),
(560,320,l),
(400,320,l),
(400,160,l)
);
}
);
width = 960;
}
);
unicode = 35;
},
{
glyphname = dollar;
layers = (
{
layerId = m000;
shapes = (
{
closed = 1;
nodes = (
(320,520,l),
(320,640,l),
(440,640,l),
(440,520,l),
(560,520,l),
(560,400,l),
(200,400,l),
(200,280,l),
(560,280,l),
(560,40,l),
(440,40,l),
(440,-80,l),
(320,-80,l),
(320,40,l),
(80,40,l),
(80,160,l),
(200,160,l),
(200,280,l),
(80,280,l),
(80,400,l),
(200,400,l),
(200,520,l)
);
}
);
width = 640;
}
);
unicode = 36;
},
{
glyphname = percent;
layers = (
{
layerId = m000;
shapes = (
{
closed = 1;
nodes = (
(720,640,l),
(720,480,l),
(560,480,l),
(560,320,l),
(400,320,l),
(400,160,l),
(240,160,l),
(240,0,l),
(80,0,l),
(80,160,l),
(240,160,l),
(240,320,l),
(400,320,l),
(400,480,l),
(560,480,l),
(560,640,l)
);
},
{
closed = 1;
nodes = (
(240,640,l),
(80,640,l),
(80,480,l),
(240,480,l)
);
},
{
closed = 1;
nodes = (
(720,0,l),
(560,0,l),
(560,160,l),
(720,160,l)
);
}
);
width = 800;
}
);
unicode = 37;
},
{
glyphname = ampersand;
layers = (
{
layerId = m000;
shapes = (
{
closed = 1;
nodes = (
(400,160,l),
(400,0,l),
(80,0,l),
(80,320,l),
(240,320,l),
(240,480,l),
(80,480,l),
(80,640,l),
(400,640,l),
(400,320,l),
(560,320,l),
(560,480,l),
(720,480,l),
(720,320,l),
(560,320,l),
(560,160,l),
(720,160,l),
(720,0,l),
(560,0,l),
(560,160,l)
);
}
);
width = 800;
}
);
unicode = 38;
},
{
glyphname = quotesingle;
layers = (
{
layerId = m000;
shapes = (
{
closed = 1;
nodes = (
(200,640,l),
(200,480,l),
(80,480,l),
(80,640,l)
);
}
);
width = 280;
}
);
unicode = 39;
},
{
glyphname = parenleft;
layers = (
{
layerId = m000;
shapes = (
{
closed = 1;
nodes = (
(400,-160,l),
(240,-160,l),
(240,0,l),
(80,0,l),
(80,640,l),
(240,640,l),
(240,800,l),
(400,800,l),
(400,640,l),
(240,640,l),
(240,0,l),
(400,0,l)
);
}
);
width = 480;
}
);
unicode = 40;
},
{
glyphname = parenright;
layers = (
{
layerId = m000;
shapes = (
{
closed = 1;
nodes = (
(240,0,l),
(240,640,l),
(80,640,l),
(80,800,l),
(240,800,l),
(240,640,l),
(400,640,l),
(400,0,l),
(240,0,l),
(240,-160,l),
(80,-160,l),
(80,0,l)
);
}
);
width = 480;
}
);
unicode = 41;
},
{
glyphname = asterisk;
layers = (
{
layerId = m000;
shapes = (
{
closed = 1;
nodes = (
(560,640,l),
(560,480,l),
(400,480,l),
(400,320,l),
(560,320,l),
(560,160,l),
(400,160,l),
(400,320,l),
(240,320,l),
(240,160,l),
(80,160,l),
(80,320,l),
(240,320,l),
(240,480,l),
(80,480,l),
(80,640,l),
(240,640,l),
(240,480,l),
(400,480,l),
(400,640,l)
);
}
);
width = 640;
}
);
unicode = 42;
},
{
glyphname = plus;
layers = (
{
layerId = m000;
shapes = (
{
closed = 1;
nodes = (
(240,320,l),
(240,480,l),
(400,480,l),
(400,320,l),
(560,320,l),
(560,160,l),
(400,160,l),
(400,0,l),
(240,0,l),
(240,160,l),
(80,160,l),
(80,320,l)
);
}
);
width = 640;
}
);
unicode = 43;
},
{
glyphname = comma;
layers = (
{
layerId = m000;
shapes = (
{
closed = 1;
nodes = (
(240,160,l),
(240,-160,l),
(80,-160,l),
(80,160,l)
);
}
);
width = 320;
}
);
unicode = 44;
},
{
glyphname = hyphenminus;
layers = (
{
layerId = m000;
shapes = (
{
closed = 1;
nodes = (
(400,320,l),
(400,160,l),
(80,160,l),
(80,320,l)
);
}
);
width = 480;
}
);
unicode = 45;
},
{
glyphname = period;
layers = (
{
layerId = m000;
shapes = (
{
closed = 1;
nodes = (
(240,160,l),
(240,0,l),
(80,0,l),
(80,160,l)
);
}
);
width = 320;
}
);
unicode = 46;
},
{
glyphname = slash;
layers = (
{
layerId = m000;
shapes = (
{
closed = 1;
nodes = (
(720,640,l),
(720,480,l),
(560,480,l),
(560,320,l),
(400,320,l),
(400,160,l),
(240,160,l),
(240,0,l),
(80,0,l),
(80,160,l),
(240,160,l),
(240,320,l),
(400,320,l),
(400,480,l),
(560,480,l),
(560,640,l)
);
}
);
width = 800;
}
);
unicode = 47;
},
{
glyphname = zero;
layers = (
{
layerId = m000;
shapes = (
{
closed = 1;
nodes = (
(80,0,l),
(80,320,l),
(400,320,l),
(400,0,l)
);
}
);
width = 480;
}
);
unicode = 48;
},
{
glyphname = one;
layers = (
{
layerId = m000;
shapes = (
{
closed = 1;
nodes = (
(80,640,l),
(80,0,l),
(240,0,l),
(240,640,l)
);
}
);
width = 320;
}
);
unicode = 49;
},
{
glyphname = two;
layers = (
{
layerId = m000;
shapes = (
{
closed = 1;
nodes = (
(560,280,l),
(240,280,l),
(240,0,l),
(80,0,l),
(80,640,l),
(240,640,l),
(240,440,l),
(400,440,l),
(400,640,l),
(560,640,l)
);
}
);
width = 640;
}
);
unicode = 50;
},
{
glyphname = three;
layers = (
{
layerId = m000;
shapes = (
{
closed = 1;
nodes = (
(800,280,l),
(240,280,l),
(240,0,l),
(80,0,l),
(80,640,l),
(240,640,l),
(240,440,l),
(360,440,l),
(360,640,l),
(520,640,l),
(520,440,l),
(640,440,l),
(640,640,l),
(800,640,l)
);
}
);
width = 880;
}
);
unicode = 51;
},
{
glyphname = four;
layers = (
{
layerId = m000;
shapes = (
{
closed = 1;
nodes = (
(240,200,l),
(240,0,l),
(80,0,l),
(80,640,l),
(240,640,l),
(240,360,l),
(360,360,l),
(360,640,l),
(640,640,l),
(640,480,l),
(520,480,l),
(520,360,l),
(640,360,l),
(640,200,l)
);
}
);
width = 720;
}
);
unicode = 52;
},
{
glyphname = five;
layers = (
{
layerId = m000;
shapes = (
{
closed = 1;
nodes = (
(600,480,l),
(240,480,l),
(240,160,l),
(360,160,l),
(360,320,l),
(480,320,l),
(480,160,l),
(600,160,l)
);
},
{
closed = 1;
nodes = (
(760,0,l),
(80,0,l),
(80,480,l),
(240,480,l),
(240,640,l),
(600,640,l),
(600,480,l),
(760,480,l)
);
}
);
width = 840;
}
);
unicode = 53;
},
{
glyphname = six;
layers = (
{
layerId = m000;
shapes = (
{
closed = 1;
nodes = (
(480,640,l),
(480,480,l),
(240,480,l),
(240,320,l),
(480,320,l),
(480,160,l),
(240,160,l),
(240,0,l),
(80,0,l),
(80,160,l),
(240,160,l),
(240,320,l),
(80,320,l),
(80,640,l)
);
}
);
width = 560;
}
);
unicode = 54;
},
{
glyphname = seven;
layers = (
{
layerId = m000;
shapes = (
{
closed = 1;
nodes = (
(400,160,l),
(400,640,l),
(560,640,l),
(560,160,l),
(400,160,l),
(400,0,l),
(80,0,l),
(80,640,l),
(240,640,l),
(240,160,l)
);
}
);
width = 640;
}
);
unicode = 55;
},
{
glyphname = eight;
layers = (
{
layerId = m000;
shapes = (
{
closed = 1;
nodes = (
(400,0,l),
(400,480,l),
(240,480,l),
(240,0,l),
(80,0,l),
(80,640,l),
(400,640,l),
(400,480,l),
(560,480,l),
(560,0,l)
);
}
);
width = 640;
}
);
unicode = 56;
},
{
glyphname = nine;
layers = (
{
layerId = m000;
shapes = (
{
closed = 1;
nodes = (
(80,320,l),
(80,640,l),
(480,640,l),
(480,0,l),
(320,0,l),
(320,320,l)
);
}
);
width = 560;
}
);
unicode = 57;
},
{
glyphname = semicolon;
layers = (
{
layerId = m000;
shapes = (
{
closed = 1;
nodes = (
(240,160,l),
(240,-160,l),
(80,-160,l),
(80,160,l)
);
},
{
closed = 1;
nodes = (
(80,480,l),
(80,320,l),
(240,320,l),
(240,480,l)
);
}
);
width = 320;
}
);
unicode = 59;
},
{
glyphname = less;
layers = (
{
layerId = m000;
shapes = (
{
closed = 1;
nodes = (
(400,480,l),
(400,320,l),
(240,320,l),
(240,160,l),
(400,160,l),
(400,0,l),
(240,0,l),
(240,160,l),
(80,160,l),
(80,320,l),
(240,320,l),
(240,480,l)
);
}
);
width = 480;
}
);
unicode = 60;
},
{
glyphname = greater;
layers = (
{
layerId = m000;
shapes = (
{
closed = 1;
nodes = (
(240,320,l),
(400,320,l),
(400,160,l),
(240,160,l),
(240,0,l),
(80,0,l),
(80,160,l),
(240,160,l),
(240,320,l),
(80,320,l),
(80,480,l),
(240,480,l)
);
}
);
width = 480;
}
);
unicode = 62;
},
{
glyphname = lessthanorequalto;
layers = (
{
layerId = m000;
shapes = (
{
closed = 1;
nodes = (
(400,160,l),
(400,0,l),
(80,0,l),
(80,160,l)
);
},
{
closed = 1;
nodes = (
(400,760,l),
(400,600,l),
(240,600,l),
(240,440,l),
(400,440,l),
(400,280,l),
(240,280,l),
(240,440,l),
(80,440,l),
(80,600,l),
(240,600,l),
(240,760,l)
);
}
);
width = 480;
}
);
unicode = 8804;
},
{
glyphname = greaterthanorequalto;
layers = (
{
layerId = m000;
shapes = (
{
closed = 1;
nodes = (
(400,0,l),
(80,0,l),
(80,160,l),
(400,160,l)
);
},
{
closed = 1;
nodes = (
(240,600,l),
(400,600,l),
(400,440,l),
(240,440,l),
(240,280,l),
(80,280,l),
(80,440,l),
(240,440,l),
(240,600,l),
(80,600,l),
(80,760,l),
(240,760,l)
);
}
);
width = 480;
}
);
unicode = 8805;
},
{
glyphname = equal;
layers = (
{
layerId = m000;
shapes = (
{
closed = 1;
nodes = (
(400,280,l),
(400,440,l),
(80,440,l),
(80,280,l)
);
},
{
closed = 1;
nodes = (
(400,160,l),
(400,0,l),
(80,0,l),
(80,160,l)
);
}
);
width = 480;
}
);
unicode = 61;
},
{
glyphname = notequalto;
layers = (
{
layerId = m000;
shapes = (
{
closed = 1;
nodes = (
(400,120,l),
(400,0,l),
(240,0,l),
(240,120,l),
(80,120,l),
(80,280,l),
(240,280,l),
(240,360,l),
(80,360,l),
(80,520,l),
(240,520,l),
(240,640,l),
(400,640,l),
(400,520,l),
(560,520,l),
(560,360,l),
(400,360,l),
(400,280,l),
(560,280,l),
(560,120,l)
);
}
);
width = 640;
}
);
unicode = 8800;
},
{
glyphname = plusminus;
layers = (
{
layerId = m000;
shapes = (
{
closed = 1;
nodes = (
(560,160,l),
(560,0,l),
(80,0,l),
(80,160,l)
);
},
{
closed = 1;
nodes = (
(240,600,l),
(240,760,l),
(400,760,l),
(400,600,l),
(560,600,l),
(560,440,l),
(400,440,l),
(400,280,l),
(240,280,l),
(240,440,l),
(80,440,l),
(80,600,l)
);
}
);
width = 640;
}
);
unicode = 177;
},
{
glyphname = multiply;
layers = (
{
layerId = m000;
shapes = (
{
closed = 1;
nodes = (
(80,480,l),
(240,480,l),
(240,320,l),
(400,320,l),
(400,480,l),
(560,480,l),
(560,320,l),
(400,320,l),
(400,160,l),
(560,160,l),
(560,0,l),
(400,0,l),
(400,160,l),
(240,160,l),
(240,0,l),
(80,0,l),
(80,160,l),
(240,160,l),
(240,320,l),
(80,320,l)
);
}
);
width = 640;
}
);
unicode = 215;
},
{
glyphname = divide;
layers = (
{
layerId = m000;
shapes = (
{
closed = 1;
nodes = (
(560,400,l),
(560,240,l),
(80,240,l),
(80,400,l)
);
},
{
closed = 1;
nodes = (
(400,120,l),
(400,0,l),
(240,0,l),
(240,120,l)
);
},
{
closed = 1;
nodes = (
(400,640,l),
(400,520,l),
(240,520,l),
(240,640,l)
);
}
);
width = 640;
}
);
unicode = 247;
},
{
glyphname = at;
layers = (
{
layerId = m000;
shapes = (
{
closed = 1;
nodes = (
(640,280,l),
(400,280,l),
(400,480,l),
(240,480,l),
(240,160,l),
(640,160,l),
(640,0,l),
(240,0,l),
(240,160,l),
(80,160,l),
(80,480,l),
(240,480,l),
(240,640,l),
(640,640,l)
);
}
);
width = 720;
}
);
unicode = 64;
},
{
glyphname = A;
layers = (
{
layerId = m000;
shapes = (
{
closed = 1;
nodes = (
(400,320,l),
(400,480,l),
(240,480,l),
(240,320,l)
);
},
{
closed = 1;
nodes = (
(80,0,l),
(80,480,l),
(240,480,l),
(240,640,l),
(400,640,l),
(400,480,l),
(560,480,l),
(560,0,l),
(400,0,l),
(400,160,l),
(240,160,l),
(240,0,l)
);
}
);
width = 640;
}
);
unicode = 65;
},
{
glyphname = B;
layers = (
{
layerId = m000;
shapes = (
{
closed = 1;
nodes = (
(400,320,l),
(240,320,l),
(240,160,l),
(400,160,l)
);
},
{
closed = 1;
nodes = (
(400,320,l),
(560,320,l),
(560,160,l),
(400,160,l),
(400,0,l),
(80,0,l),
(80,640,l),
(400,640,l)
);
}
);
width = 640;
}
);
unicode = 66;
},
{
glyphname = C;
layers = (
{
layerId = m000;
shapes = (
{
closed = 1;
nodes = (
(400,160,l),
(400,0,l),
(80,0,l),
(80,480,l),
(240,480,l),
(240,640,l),
(400,640,l),
(400,480,l),
(240,480,l),
(240,160,l)
);
}
);
width = 480;
}
);
unicode = 67;
},
{
glyphname = D;
layers = (
{
layerId = m000;
shapes = (
{
closed = 1;
nodes = (
(400,480,l),
(240,480,l),
(240,160,l),
(400,160,l)
);
},
{
closed = 1;
nodes = (
(400,0,l),
(80,0,l),
(80,640,l),
(400,640,l),
(400,480,l),
(560,480,l),
(560,160,l),
(400,160,l)
);
}
);
width = 640;
}
);
unicode = 68;
},
{
glyphname = E;
layers = (
{
layerId = m000;
shapes = (
{
closed = 1;
nodes = (
(400,160,l),
(400,0,l),
(80,0,l),
(80,640,l),
(400,640,l),
(400,320,l),
(240,320,l),
(240,160,l)
);
}
);
width = 480;
}
);
unicode = 69;
},
{
glyphname = F;
layers = (
{
layerId = m000;
shapes = (
{
closed = 1;
nodes = (
(80,0,l),
(80,640,l),
(400,640,l),
(400,480,l),
(240,480,l),
(240,320,l),
(400,320,l),
(400,160,l),
(240,160,l),
(240,0,l)
);
}
);
width = 480;
}
);
unicode = 70;
},
{
glyphname = G;
layers = (
{
layerId = m000;
shapes = (
{
closed = 1;
nodes = (
(400,160,l),
(400,320,l),
(560,320,l),
(560,0,l),
(80,0,l),
(80,480,l),
(240,480,l),
(240,640,l),
(560,640,l),
(560,480,l),
(240,480,l),
(240,160,l)
);
}
);
width = 640;
}
);
unicode = 71;
},
{
glyphname = H;
layers = (
{
layerId = m000;
shapes = (
{
closed = 1;
nodes = (
(80,0,l),
(80,640,l),
(240,640,l),
(240,400,l),
(400,400,l),
(400,640,l),
(560,640,l),
(560,0,l),
(400,0,l),
(400,240,l),
(240,240,l),
(240,0,l)
);
}
);
width = 640;
}
);
unicode = 72;
},
{
glyphname = I;
layers = (
{
layerId = m000;
shapes = (
{
closed = 1;
nodes = (
(560,480,l),
(400,480,l),
(400,160,l),
(560,160,l),
(560,0,l),
(80,0,l),
(80,160,l),
(240,160,l),
(240,480,l),
(80,480,l),
(80,640,l),
(560,640,l)
);
}
);
width = 640;
}
);
unicode = 73;
},
{
glyphname = J;
layers = (
{
layerId = m000;
shapes = (
{
closed = 1;
nodes = (
(400,0,l),
(80,0,l),
(80,160,l),
(240,160,l),
(240,640,l),
(400,640,l)
);
}
);
width = 480;
}
);
unicode = 74;
},
{
glyphname = K;
layers = (
{
layerId = m000;
shapes = (
{
closed = 1;
nodes = (
(400,480,l),
(400,640,l),
(560,640,l),
(560,480,l),
(400,480,l),
(400,320,l),
(560,320,l),
(560,0,l),
(400,0,l),
(400,320,l),
(240,320,l),
(240,0,l),
(80,0,l),
(80,640,l),
(240,640,l),
(240,480,l)
);
}
);
width = 640;
}
);
unicode = 75;
},
{
glyphname = L;
layers = (
{
layerId = m000;
shapes = (
{
closed = 1;
nodes = (
(240,640,l),
(240,160,l),
(400,160,l),
(400,0,l),
(80,0,l),
(80,640,l)
);
}
);
width = 480;
}
);
unicode = 76;
},
{
glyphname = M;
layers = (
{
layerId = m000;
shapes = (
{
closed = 1;
nodes = (
(80,0,l),
(80,640,l),
(240,640,l),
(240,480,l),
(360,480,l),
(360,320,l),
(520,320,l),
(520,480,l),
(640,480,l),
(640,640,l),
(800,640,l),
(800,0,l),
(640,0,l),
(640,320,l),
(520,320,l),
(520,160,l),
(360,160,l),
(360,320,l),
(240,320,l),
(240,0,l)
);
}
);
width = 880;
}
);
unicode = 77;
},
{
glyphname = N;
layers = (
{
layerId = m000;
shapes = (
{
closed = 1;
nodes = (
(80,0,l),
(80,640,l),
(240,640,l),
(240,480,l),
(360,480,l),
(360,320,l),
(480,320,l),
(480,640,l),
(640,640,l),
(640,0,l),
(480,0,l),
(480,160,l),
(360,160,l),
(360,320,l),
(240,320,l),
(240,0,l)
);
}
);
width = 720;
}
);
unicode = 78;
},
{
glyphname = O;
layers = (
{
layerId = m000;
shapes = (
{
closed = 1;
nodes = (
(440,480,l),
(240,480,l),
(240,160,l),
(440,160,l)
);
},
{
closed = 1;
nodes = (
(600,160,l),
(440,160,l),
(440,0,l),
(240,0,l),
(240,160,l),
(80,160,l),
(80,480,l),
(240,480,l),
(240,640,l),
(440,640,l),
(440,480,l),
(600,480,l)
);
}
);
width = 680;
}
);
unicode = 79;
},
{
glyphname = P;
layers = (
{
layerId = m000;
shapes = (
{
closed = 1;
nodes = (
(400,480,l),
(240,480,l),
(240,320,l),
(400,320,l)
);
},
{
closed = 1;
nodes = (
(400,160,l),
(240,160,l),
(240,0,l),
(80,0,l),
(80,640,l),
(400,640,l),
(400,480,l),
(560,480,l),
(560,320,l),
(400,320,l)
);
}
);
width = 640;
}
);
unicode = 80;
},
{
glyphname = Q;
layers = (
{
layerId = m000;
shapes = (
{
closed = 1;
nodes = (
(400,160,l),
(400,320,l),
(560,320,l),
(560,480,l),
(240,480,l),
(240,160,l)
);
},
{
closed = 1;
nodes = (
(720,480,l),
(720,320,l),
(560,320,l),
(560,160,l),
(720,160,l),
(720,0,l),
(560,0,l),
(560,160,l),
(400,160,l),
(400,0,l),
(240,0,l),
(240,160,l),
(80,160,l),
(80,480,l),
(240,480,l),
(240,640,l),
(560,640,l),
(560,480,l)
);
}
);
width = 800;
}
);
unicode = 81;
},
{
glyphname = R;
layers = (
{
layerId = m000;
shapes = (
{
closed = 1;
nodes = (
(400,480,l),
(240,480,l),
(240,320,l),
(400,320,l)
);
},
{
closed = 1;
nodes = (
(400,160,l),
(560,160,l),
(560,0,l),
(400,0,l),
(400,160,l),
(240,160,l),
(240,0,l),
(80,0,l),
(80,640,l),
(400,640,l),
(400,480,l),
(560,480,l),
(560,320,l),
(400,320,l)
);
}
);
width = 640;
}
);
unicode = 82;
},
{
glyphname = S;
layers = (
{
layerId = m000;
shapes = (
{
closed = 1;
nodes = (
(480,0,l),
(80,0,l),
(80,160,l),
(240,160,l),
(240,320,l),
(80,320,l),
(80,480,l),
(240,480,l),
(240,640,l),
(480,640,l),
(480,480,l),
(240,480,l),
(240,320,l),
(480,320,l)
);
}
);
width = 560;
}
);
unicode = 83;
},
{
glyphname = T;
layers = (
{
layerId = m000;
shapes = (
{
closed = 1;
nodes = (
(560,640,l),
(560,480,l),
(400,480,l),
(400,0,l),
(240,0,l),
(240,480,l),
(80,480,l),
(80,640,l)
);
}
);
width = 640;
}
);
unicode = 84;
},
{
glyphname = U;
layers = (
{
layerId = m000;
shapes = (
{
closed = 1;
nodes = (
(560,0,l),
(80,0,l),
(80,640,l),
(240,640,l),
(240,160,l),
(400,160,l),
(400,640,l),
(560,640,l)
);
}
);
width = 640;
}
);
unicode = 85;
},
{
glyphname = V;
layers = (
{
layerId = m000;
shapes = (
{
closed = 1;
nodes = (
(480,160,l),
(480,360,l),
(560,360,l),
(560,640,l),
(720,640,l),
(720,360,l),
(600,360,l),
(600,160,l),
(480,160,l),
(480,0,l),
(320,0,l),
(320,160,l),
(200,160,l),
(200,360,l),
(80,360,l),
(80,640,l),
(240,640,l),
(240,360,l),
(320,360,l),
(320,160,l)
);
}
);
width = 800;
}
);
unicode = 86;
},
{
glyphname = W;
layers = (
{
layerId = m000;
shapes = (
{
closed = 1;
nodes = (
(240,320,l),
(360,320,l),
(360,480,l),
(520,480,l),
(520,320,l),
(640,320,l),
(640,640,l),
(800,640,l),
(800,0,l),
(640,0,l),
(640,160,l),
(520,160,l),
(520,320,l),
(360,320,l),
(360,160,l),
(240,160,l),
(240,0,l),
(80,0,l),
(80,640,l),
(240,640,l)
);
}
);
width = 880;
}
);
unicode = 87;
},
{
glyphname = X;
layers = (
{
layerId = m000;
shapes = (
{
closed = 1;
nodes = (
(400,400,l),
(400,640,l),
(560,640,l),
(560,400,l),
(400,400,l),
(400,240,l),
(560,240,l),
(560,0,l),
(400,0,l),
(400,240,l),
(240,240,l),
(240,0,l),
(80,0,l),
(80,240,l),
(240,240,l),
(240,400,l),
(80,400,l),
(80,640,l),
(240,640,l),
(240,400,l)
);
}
);
width = 640;
}
);
unicode = 88;
},
{
glyphname = Y;
layers = (
{
layerId = m000;
shapes = (
{
closed = 1;
nodes = (
(400,480,l),
(400,640,l),
(560,640,l),
(560,480,l),
(400,480,l),
(400,0,l),
(240,0,l),
(240,480,l),
(80,480,l),
(80,640,l),
(240,640,l),
(240,480,l)
);
}
);
width = 640;
}
);
unicode = 89;
},
{
glyphname = Z;
layers = (
{
layerId = m000;
shapes = (
{
closed = 1;
nodes = (
(560,640,l),
(560,320,l),
(400,320,l),
(400,160,l),
(560,160,l),
(560,0,l),
(80,0,l),
(80,160,l),
(240,160,l),
(240,320,l),
(400,320,l),
(400,480,l),
(80,480,l),
(80,640,l)
);
}
);
width = 640;
}
);
unicode = 90;
},
{
glyphname = bracketleft;
layers = (
{
layerId = m000;
shapes = (
{
closed = 1;
nodes = (
(400,0,l),
(400,-160,l),
(80,-160,l),
(80,800,l),
(400,800,l),
(400,640,l),
(240,640,l),
(240,0,l)
);
}
);
width = 480;
}
);
unicode = 91;
},
{
glyphname = backslash;
layers = (
{
layerId = m000;
shapes = (
{
closed = 1;
nodes = (
(80,640,l),
(240,640,l),
(240,480,l),
(400,480,l),
(400,320,l),
(560,320,l),
(560,160,l),
(720,160,l),
(720,0,l),
(560,0,l),
(560,160,l),
(400,160,l),
(400,320,l),
(240,320,l),
(240,480,l),
(80,480,l)
);
}
);
width = 800;
}
);
unicode = 92;
},
{
glyphname = bracketright;
layers = (
{
layerId = m000;
shapes = (
{
closed = 1;
nodes = (
(400,800,l),
(400,-160,l),
(80,-160,l),
(80,0,l),
(240,0,l),
(240,640,l),
(80,640,l),
(80,800,l)
);
}
);
width = 480;
}
);
unicode = 93;
},
{
glyphname = a;
layers = (
{
layerId = m000;
shapes = (
{
closed = 1;
nodes = (
(400,160,l),
(400,320,l),
(240,320,l),
(240,160,l)
);
},
{
closed = 1;
nodes = (
(240,0,l),
(240,160,l),
(80,160,l),
(80,320,l),
(240,320,l),
(240,480,l),
(560,480,l),
(560,0,l)
);
}
);
width = 640;
}
);
unicode = 97;
},
{
glyphname = b;
layers = (
{
layerId = m000;
shapes = (
{
closed = 1;
nodes = (
(400,320,l),
(240,320,l),
(240,160,l),
(400,160,l)
);
},
{
closed = 1;
nodes = (
(560,0,l),
(80,0,l),
(80,640,l),
(240,640,l),
(240,480,l),
(400,480,l),
(400,320,l),
(560,320,l)
);
}
);
width = 640;
}
);
unicode = 98;
},
{
glyphname = c;
layers = (
{
layerId = m000;
shapes = (
{
closed = 1;
nodes = (
(440,480,l),
(440,320,l),
(240,320,l),
(240,160,l),
(440,160,l),
(440,0,l),
(80,0,l),
(80,320,l),
(240,320,l),
(240,480,l)
);
}
);
width = 520;
}
);
unicode = 99;
},
{
glyphname = d;
layers = (
{
layerId = m000;
shapes = (
{
closed = 1;
nodes = (
(400,160,l),
(400,320,l),
(240,320,l),
(240,160,l)
);
},
{
closed = 1;
nodes = (
(80,320,l),
(240,320,l),
(240,480,l),
(400,480,l),
(400,640,l),
(560,640,l),
(560,0,l),
(80,0,l)
);
}
);
width = 640;
}
);
unicode = 100;
},
{
glyphname = e;
layers = (
{
layerId = m000;
shapes = (
{
closed = 1;
nodes = (
(560,480,l),
(560,320,l),
(400,320,l),
(400,160,l),
(560,160,l),
(560,0,l),
(80,0,l),
(80,320,l),
(240,320,l),
(240,480,l)
);
}
);
width = 640;
}
);
unicode = 101;
},
{
glyphname = f;
layers = (
{
layerId = m000;
shapes = (
{
closed = 1;
nodes = (
(560,640,l),
(560,480,l),
(400,480,l),
(400,360,l),
(560,360,l),
(560,200,l),
(400,200,l),
(400,0,l),
(240,0,l),
(240,200,l),
(80,200,l),
(80,360,l),
(240,360,l),
(240,480,l),
(400,480,l),
(400,640,l)
);
}
);
width = 640;
}
);
unicode = 102;
},
{
glyphname = g;
layers = (
{
layerId = m000;
shapes = (
{
closed = 1;
nodes = (
(400,160,l),
(400,320,l),
(240,320,l),
(240,160,l)
);
},
{
closed = 1;
nodes = (
(560,480,l),
(560,-160,l),
(400,-160,l),
(400,-320,l),
(80,-320,l),
(80,-160,l),
(400,-160,l),
(400,0,l),
(80,0,l),
(80,320,l),
(240,320,l),
(240,480,l)
);
}
);
width = 640;
}
);
unicode = 103;
},
{
glyphname = h;
layers = (
{
layerId = m000;
shapes = (
{
closed = 1;
nodes = (
(80,0,l),
(80,640,l),
(240,640,l),
(240,480,l),
(400,480,l),
(400,320,l),
(560,320,l),
(560,0,l),
(400,0,l),
(400,320,l),
(240,320,l),
(240,0,l)
);
}
);
width = 640;
}
);
unicode = 104;
},
{
glyphname = i;
layers = (
{
layerId = m000;
shapes = (
{
closed = 1;
nodes = (
(240,640,l),
(240,480,l),
(80,480,l),
(80,640,l)
);
},
{
closed = 1;
nodes = (
(240,320,l),
(240,0,l),
(80,0,l),
(80,320,l)
);
}
);
width = 320;
}
);
unicode = 105;
},
{
glyphname = j;
layers = (
{
layerId = m000;
shapes = (
{
closed = 1;
nodes = (
(240,-160,l),
(240,-320,l),
(80,-320,l),
(80,-160,l),
(240,-160,l),
(240,320,l),
(400,320,l),
(400,-160,l)
);
},
{
closed = 1;
nodes = (
(400,640,l),
(400,480,l),
(240,480,l),
(240,640,l)
);
}
);
width = 480;
}
);
unicode = 106;
},
{
glyphname = k;
layers = (
{
layerId = m000;
shapes = (
{
closed = 1;
nodes = (
(400,320,l),
(400,480,l),
(560,480,l),
(560,320,l),
(400,320,l),
(400,160,l),
(560,160,l),
(560,0,l),
(400,0,l),
(400,160,l),
(240,160,l),
(240,0,l),
(80,0,l),
(80,640,l),
(240,640,l),
(240,320,l)
);
}
);
width = 640;
}
);
unicode = 107;
},
{
glyphname = l;
layers = (
{
layerId = m000;
shapes = (
{
closed = 1;
nodes = (
(240,0,l),
(240,160,l),
(80,160,l),
(80,640,l),
(240,640,l),
(240,160,l),
(400,160,l),
(400,0,l)
);
}
);
width = 480;
}
);
unicode = 108;
},
{
glyphname = m;
layers = (
{
layerId = m000;
shapes = (
{
closed = 1;
nodes = (
(80,0,l),
(80,480,l),
(720,480,l),
(720,320,l),
(880,320,l),
(880,0,l),
(720,0,l),
(720,320,l),
(560,320,l),
(560,160,l),
(400,160,l),
(400,320,l),
(240,320,l),
(240,0,l)
);
}
);
width = 960;
}
);
unicode = 109;
},
{
glyphname = n;
layers = (
{
layerId = m000;
shapes = (
{
closed = 1;
nodes = (
(80,0,l),
(80,480,l),
(400,480,l),
(400,320,l),
(560,320,l),
(560,0,l),
(400,0,l),
(400,320,l),
(240,320,l),
(240,0,l)
);
}
);
width = 640;
}
);
unicode = 110;
},
{
glyphname = o;
layers = (
{
layerId = m000;
shapes = (
{
closed = 1;
nodes = (
(400,320,l),
(240,320,l),
(240,160,l),
(400,160,l)
);
},
{
closed = 1;
nodes = (
(560,0,l),
(80,0,l),
(80,320,l),
(240,320,l),
(240,480,l),
(400,480,l),
(400,320,l),
(560,320,l)
);
}
);
width = 640;
}
);
unicode = 111;
},
{
glyphname = p;
layers = (
{
layerId = m000;
shapes = (
{
closed = 1;
nodes = (
(400,320,l),
(240,320,l),
(240,160,l),
(400,160,l)
);
},
{
closed = 1;
nodes = (
(560,0,l),
(240,0,l),
(240,-160,l),
(80,-160,l),
(80,480,l),
(400,480,l),
(400,320,l),
(560,320,l)
);
}
);
width = 640;
}
);
unicode = 112;
},
{
glyphname = q;
layers = (
{
layerId = m000;
shapes = (
{
closed = 1;
nodes = (
(400,160,l),
(400,320,l),
(240,320,l),
(240,160,l)
);
},
{
closed = 1;
nodes = (
(560,480,l),
(560,-160,l),
(400,-160,l),
(400,0,l),
(80,0,l),
(80,320,l),
(240,320,l),
(240,480,l)
);
}
);
width = 640;
}
);
unicode = 113;
},
{
glyphname = r;
layers = (
{
layerId = m000;
shapes = (
{
closed = 1;
nodes = (
(400,480,l),
(400,320,l),
(240,320,l),
(240,0,l),
(80,0,l),
(80,480,l)
);
}
);
width = 480;
}
);
unicode = 114;
},
{
glyphname = s;
layers = (
{
layerId = m000;
shapes = (
{
closed = 1;
nodes = (
(400,0,l),
(80,0,l),
(80,160,l),
(240,160,l),
(240,480,l),
(560,480,l),
(560,320,l),
(400,320,l)
);
}
);
width = 640;
}
);
unicode = 115;
},
{
glyphname = t;
layers = (
{
layerId = m000;
shapes = (
{
closed = 1;
nodes = (
(240,320,l),
(80,320,l),
(80,480,l),
(240,480,l),
(240,640,l),
(400,640,l),
(400,480,l),
(560,480,l),
(560,320,l),
(400,320,l),
(400,160,l),
(560,160,l),
(560,0,l),
(240,0,l)
);
}
);
width = 640;
}
);
unicode = 116;
},
{
glyphname = u;
layers = (
{
layerId = m000;
shapes = (
{
closed = 1;
nodes = (
(80,480,l),
(240,480,l),
(240,160,l),
(400,160,l),
(400,480,l),
(560,480,l),
(560,0,l),
(80,0,l)
);
}
);
width = 640;
}
);
unicode = 117;
},
{
glyphname = v;
layers = (
{
layerId = m000;
shapes = (
{
closed = 1;
nodes = (
(240,480,l),
(240,160,l),
(400,160,l),
(400,480,l),
(560,480,l),
(560,160,l),
(400,160,l),
(400,0,l),
(240,0,l),
(240,160,l),
(80,160,l),
(80,480,l)
);
}
);
width = 640;
}
);
unicode = 118;
},
{
glyphname = w;
layers = (
{
layerId = m000;
shapes = (
{
closed = 1;
nodes = (
(80,480,l),
(240,480,l),
(240,160,l),
(400,160,l),
(400,320,l),
(560,320,l),
(560,160,l),
(720,160,l),
(720,480,l),
(880,480,l),
(880,0,l),
(80,0,l)
);
}
);
width = 960;
}
);
unicode = 119;
},
{
glyphname = x;
layers = (
{
layerId = m000;
shapes = (
{
closed = 1;
nodes = (
(240,480,l),
(240,320,l),
(400,320,l),
(400,480,l),
(560,480,l),
(560,320,l),
(400,320,l),
(400,160,l),
(560,160,l),
(560,0,l),
(400,0,l),
(400,160,l),
(240,160,l),
(240,0,l),
(80,0,l),
(80,160,l),
(240,160,l),
(240,320,l),
(80,320,l),
(80,480,l)
);
}
);
width = 640;
}
);
unicode = 120;
},
{
glyphname = y;
layers = (
{
layerId = m000;
shapes = (
{
closed = 1;
nodes = (
(240,480,l),
(240,160,l),
(400,160,l),
(400,480,l),
(560,480,l),
(560,-160,l),
(400,-160,l),
(400,-320,l),
(80,-320,l),
(80,-160,l),
(400,-160,l),
(400,0,l),
(80,0,l),
(80,480,l)
);
}
);
width = 640;
}
);
unicode = 121;
},
{
glyphname = z;
layers = (
{
layerId = m000;
shapes = (
{
closed = 1;
nodes = (
(560,480,l),
(560,320,l),
(400,320,l),
(400,160,l),
(560,160,l),
(560,0,l),
(80,0,l),
(80,160,l),
(240,160,l),
(240,320,l),
(80,320,l),
(80,480,l)
);
}
);
width = 640;
}
);
unicode = 122;
},
{
glyphname = braceleft;
layers = (
{
layerId = m000;
shapes = (
{
closed = 1;
nodes = (
(560,960,l),
(560,800,l),
(400,800,l),
(400,480,l),
(240,480,l),
(240,320,l),
(400,320,l),
(400,-160,l),
(560,-160,l),
(560,-320,l),
(400,-320,l),
(400,-160,l),
(240,-160,l),
(240,320,l),
(80,320,l),
(80,480,l),
(240,480,l),
(240,800,l),
(400,800,l),
(400,960,l)
);
}
);
width = 640;
}
);
unicode = 123;
},
{
glyphname = bar;
layers = (
{
layerId = m000;
shapes = (
{
closed = 1;
nodes = (
(240,960,l),
(240,-320,l),
(80,-320,l),
(80,960,l)
);
}
);
width = 320;
}
);
unicode = 124;
},
{
glyphname = braceright;
layers = (
{
layerId = m000;
shapes = (
{
closed = 1;
nodes = (
(80,800,l),
(80,960,l),
(240,960,l),
(240,800,l),
(400,800,l),
(400,480,l),
(560,480,l),
(560,320,l),
(400,320,l),
(400,-160,l),
(240,-160,l),
(240,-320,l),
(80,-320,l),
(80,-160,l),
(240,-160,l),
(240,320,l),
(400,320,l),
(400,480,l),
(240,480,l),
(240,800,l)
);
}
);
width = 640;
}
);
unicode = 125;
},
{
glyphname = asciitilde;
layers = (
{
layerId = m000;
shapes = (
{
closed = 1;
nodes = (
(720,320,l),
(720,160,l),
(560,160,l),
(560,320,l),
(240,320,l),
(240,160,l),
(80,160,l),
(80,320,l),
(240,320,l),
(240,480,l),
(560,480,l),
(560,320,l),
(720,320,l),
(720,480,l),
(880,480,l),
(880,320,l)
);
}
);
width = 960;
}
);
unicode = 126;
},
{
glyphname = exclamdown;
layers = (
{
layerId = m000;
shapes = (
{
closed = 1;
nodes = (
(240,0,l),
(240,320,l),
(80,320,l),
(80,0,l)
);
},
{
closed = 1;
nodes = (
(240,480,l),
(240,640,l),
(80,640,l),
(80,480,l)
);
}
);
width = 320;
}
);
unicode = 161;
},
{
glyphname = cent;
layers = (
{
layerId = m000;
shapes = (
{
closed = 1;
nodes = (
(400,480,l),
(400,640,l),
(560,640,l),
(560,480,l),
(720,480,l),
(720,320,l),
(560,320,l),
(560,160,l),
(720,160,l),
(720,0,l),
(560,0,l),
(560,-160,l),
(400,-160,l),
(400,0,l),
(240,0,l),
(240,160,l),
(80,160,l),
(80,320,l),
(240,320,l),
(240,480,l)
);
},
{
closed = 1;
nodes = (
(400,320,l),
(240,320,l),
(240,160,l),
(400,160,l)
);
}
);
width = 800;
}
);
unicode = 162;
},
{
glyphname = sterling;
layers = (
{
layerId = m000;
shapes = (
{
closed = 1;
nodes = (
(320,400,l),
(320,520,l),
(600,520,l),
(600,640,l),
(320,640,l),
(320,520,l),
(200,520,l),
(200,400,l),
(80,400,l),
(80,280,l),
(200,280,l),
(200,120,l),
(80,120,l),
(80,0,l),
(600,0,l),
(600,120,l),
(320,120,l),
(320,280,l),
(600,280,l),
(600,400,l)
);
}
);
width = 680;
}
);
unicode = 163;
},
{
glyphname = currency;
layers = (
{
layerId = m000;
shapes = (
{
closed = 1;
nodes = (
(400,160,l),
(400,320,l),
(560,320,l),
(560,160,l)
);
},
{
closed = 1;
nodes = (
(560,320,l),
(560,480,l),
(400,480,l),
(400,320,l),
(240,320,l),
(240,480,l),
(80,480,l),
(80,320,l),
(240,320,l),
(240,160,l),
(80,160,l),
(80,0,l),
(240,0,l),
(240,160,l),
(400,160,l),
(400,0,l),
(560,0,l),
(560,160,l),
(720,160,l),
(720,0,l),
(880,0,l),
(880,160,l),
(720,160,l),
(720,320,l),
(880,320,l),
(880,480,l),
(720,480,l),
(720,320,l)
);
}
);
width = 960;
}
);
unicode = 164;
},
{
glyphname = yen;
layers = (
{
layerId = m000;
shapes = (
{
closed = 1;
nodes = (
(400,480,l),
(400,640,l),
(560,640,l),
(560,640,l),
(560,640,l),
(560,640,l),
(560,640,l),
(560,480,l),
(400,480,l),
(400,0,l),
(240,0,l),
(240,480,l),
(80,480,l),
(80,640,l),
(80,640,l),
(80,640,l),
(80,640,l),
(80,640,l),
(240,640,l),
(240,480,l)
);
},
{
closed = 1;
nodes = (
(80,160,l),
(80,320,l),
(560,320,l),
(560,160,l)
);
}
);
width = 640;
}
);
unicode = 165;
},
{
glyphname = "rialsign-arab.isol";
layers = (
{
layerId = m000;
shapes = (
{
closed = 1;
nodes = (
(560,-160,l),
(560,-320,l),
(240,-320,l),
(240,-160,l),
(80,-160,l),
(80,160,l),
(240,160,l),
(240,-160,l),
(560,-160,l),
(560,640,l),
(720,640,l),
(720,-160,l)
);
},
{
closed = 1;
nodes = (
(880,0,l),
(880,640,l),
(1040,640,l),
(1040,160,l),
(1200,160,l),
(1200,320,l),
(1360,320,l),
(1360,0,l)
);
},
{
closed = 1;
nodes = (
(1680,320,l),
(1680,-160,l),
(1520,-160,l),
(1520,-320,l),
(1360,-320,l),
(1360,-160,l),
(1520,-160,l),
(1520,320,l)
);
},
{
closed = 1;
nodes = (
(1200,-160,l),
(1200,-320,l),
(880,-320,l),
(880,-160,l)
);
}
);
width = 1760;
}
);
unicode = 65020;
},
{
glyphname = brokenbar;
layers = (
{
layerId = m000;
shapes = (
{
closed = 1;
nodes = (
(80,400,l),
(240,400,l),
(240,640,l),
(80,640,l)
);
},
{
closed = 1;
nodes = (
(80,0,l),
(240,0,l),
(240,240,l),
(80,240,l)
);
}
);
width = 320;
}
);
unicode = 166;
},
{
glyphname = section;
layers = (
{
layerId = m000;
shapes = (
{
closed = 1;
nodes = (
(480,80,l),
(480,0,l),
(80,0,l),
(80,80,l),
(480,80,l),
(480,200,l),
(160,200,l),
(160,280,l),
(480,280,l),
(480,200,l),
(560,200,l),
(560,80,l)
);
},
{
closed = 1;
nodes = (
(480,280,l),
(480,200,l),
(160,200,l),
(160,280,l),
(80,280,l),
(80,360,l),
(160,360,l),
(160,280,l),
(480,280,l),
(480,360,l),
(160,360,l),
(160,440,l),
(80,440,l),
(80,560,l),
(160,560,l),
(160,640,l),
(560,640,l),
(560,560,l),
(160,560,l),
(160,440,l),
(480,440,l),
(480,360,l),
(560,360,l),
(560,280,l)
);
}
);
width = 640;
}
);
unicode = 167;
},
{
glyphname = guilsinglleft;
layers = (
{
layerId = m000;
shapes = (
{
closed = 1;
nodes = (
(400,480,l),
(400,320,l),
(240,320,l),
(240,160,l),
(400,160,l),
(400,0,l),
(240,0,l),
(240,160,l),
(80,160,l),
(80,320,l),
(240,320,l),
(240,480,l)
);
}
);
width = 480;
}
);
unicode = 8249;
},
{
glyphname = guilsinglright;
layers = (
{
layerId = m000;
shapes = (
{
closed = 1;
nodes = (
(240,320,l),
(400,320,l),
(400,160,l),
(240,160,l),
(240,0,l),
(80,0,l),
(80,160,l),
(240,160,l),
(240,320,l),
(80,320,l),
(80,480,l),
(240,480,l)
);
}
);
width = 480;
}
);
unicode = 8250;
},
{
glyphname = copyright;
layers = (
{
layerId = m000;
shapes = (
{
closed = 1;
nodes = (
(520,480,l),
(520,400,l),
(360,400,l),
(360,240,l),
(520,240,l),
(520,160,l),
(360,160,l),
(360,240,l),
(280,240,l),
(280,400,l),
(360,400,l),
(360,480,l)
);
},
{
closed = 1;
nodes = (
(640,560,l),
(160,560,l),
(160,80,l),
(640,80,l)
);
},
{
closed = 1;
nodes = (
(640,0,l),
(160,0,l),
(160,80,l),
(80,80,l),
(80,560,l),
(160,560,l),
(160,640,l),
(640,640,l),
(640,560,l),
(720,560,l),
(720,80,l),
(640,80,l)
);
}
);
width = 800;
}
);
unicode = 169;
},
{
glyphname = registered;
layers = (
{
layerId = m000;
shapes = (
{
closed = 1;
nodes = (
(480,400,l),
(320,400,l),
(320,320,l),
(480,320,l)
);
},
{
closed = 1;
nodes = (
(480,240,l),
(560,240,l),
(560,160,l),
(480,160,l),
(480,240,l),
(320,240,l),
(320,160,l),
(240,160,l),
(240,480,l),
(480,480,l),
(480,400,l),
(560,400,l),
(560,320,l),
(480,320,l)
);
},
{
closed = 1;
nodes = (
(640,0,l),
(160,0,l),
(160,80,l),
(80,80,l),
(80,560,l),
(160,560,l),
(160,640,l),
(640,640,l),
(640,560,l),
(720,560,l),
(720,80,l),
(640,80,l)
);
},
{
closed = 1;
nodes = (
(640,560,l),
(160,560,l),
(160,80,l),
(640,80,l)
);
}
);
width = 800;
}
);
unicode = 174;
},
{
glyphname = ordfeminine;
layers = (
{
layerId = m000;
shapes = (
{
closed = 1;
nodes = (
(320,400,l),
(320,560,l),
(160,560,l),
(160,400,l)
);
},
{
closed = 1;
nodes = (
(160,320,l),
(160,400,l),
(80,400,l),
(80,560,l),
(160,560,l),
(160,640,l),
(400,640,l),
(400,320,l)
);
}
);
width = 480;
}
);
unicode = 170;
},
{
glyphname = macron;
layers = (
{
layerId = m000;
shapes = (
{
closed = 1;
nodes = (
(80,560,l),
(400,560,l),
(400,640,l),
(80,640,l)
);
}
);
width = 480;
}
);
unicode = 175;
},
{
glyphname = mu;
layers = (
{
layerId = m000;
shapes = (
{
closed = 1;
nodes = (
(80,-160,l),
(80,480,l),
(240,480,l),
(240,160,l),
(400,160,l),
(400,480,l),
(560,480,l),
(560,160,l),
(400,160,l),
(400,0,l),
(240,0,l),
(240,-160,l)
);
}
);
width = 640;
}
);
unicode = 181;
},
{
glyphname = paragraph;
layers = (
{
layerId = m000;
shapes = (
{
closed = 1;
nodes = (
(880,640,l),
(880,0,l),
(720,0,l),
(720,480,l),
(560,480,l),
(560,0,l),
(400,0,l),
(400,160,l),
(240,160,l),
(240,320,l),
(80,320,l),
(80,480,l),
(240,480,l),
(240,640,l)
);
},
{
closed = 1;
nodes = (
(400,320,l),
(400,480,l),
(240,480,l),
(240,320,l)
);
}
);
width = 960;
}
);
unicode = 182;
},
{
glyphname = questiondown;
layers = (
{
layerId = m000;
shapes = (
{
closed = 1;
nodes = (
(80,80,l),
(80,240,l),
(240,240,l),
(240,400,l),
(560,400,l),
(560,240,l),
(240,240,l),
(240,80,l),
(560,80,l),
(560,-80,l),
(240,-80,l),
(240,80,l)
);
},
{
closed = 1;
nodes = (
(480,520,l),
(480,640,l),
(320,640,l),
(320,520,l)
);
}
);
width = 640;
}
);
unicode = 191;
},
{
glyphname = asciicircum;
layers = (
{
layerId = m000;
shapes = (
{
closed = 1;
nodes = (
(560,480,l),
(560,320,l),
(400,320,l),
(400,480,l),
(240,480,l),
(240,320,l),
(80,320,l),
(80,480,l),
(240,480,l),
(240,640,l),
(400,640,l),
(400,480,l)
);
}
);
width = 800;
}
);
unicode = 94;
},
{
glyphname = underscore;
layers = (
{
layerId = m000;
shapes = (
{
closed = 1;
nodes = (
(560,0,l),
(560,-160,l),
(80,-160,l),
(80,0,l)
);
}
);
width = 640;
}
);
unicode = 95;
},
{
glyphname = germandbls;
layers = (
{
layerId = m000;
shapes = (
{
closed = 1;
nodes = (
(560,480,l),
(240,480,l),
(240,0,l),
(80,0,l),
(80,480,l),
(240,480,l),
(240,640,l),
(560,640,l),
(560,480,l),
(720,480,l),
(720,160,l),
(560,160,l),
(560,0,l),
(400,0,l),
(400,160,l),
(560,160,l)
);
}
);
width = 800;
}
);
unicode = 223;
},
{
glyphname = infinity;
layers = (
{
layerId = m000;
shapes = (
{
closed = 1;
nodes = (
(240,320,l),
(80,320,l),
(80,160,l),
(240,160,l),
(240,0,l),
(400,0,l),
(400,160,l),
(560,160,l),
(560,0,l),
(720,0,l),
(720,160,l),
(880,160,l),
(880,320,l),
(720,320,l),
(720,480,l),
(560,480,l),
(560,320,l),
(400,320,l),
(400,480,l),
(240,480,l)
);
},
{
closed = 1;
nodes = (
(400,320,l),
(400,160,l),
(240,160,l),
(240,320,l)
);
},
{
closed = 1;
nodes = (
(560,320,l),
(720,320,l),
(720,160,l),
(560,160,l)
);
}
);
width = 960;
}
);
unicode = 8734;
},
{
glyphname = "percentsign-arab";
layers = (
{
layerId = m000;
shapes = (
{
closed = 1;
nodes = (
(720,640,l),
(720,480,l),
(560,480,l),
(560,320,l),
(400,320,l),
(400,160,l),
(240,160,l),
(240,0,l),
(80,0,l),
(80,160,l),
(240,160,l),
(240,320,l),
(400,320,l),
(400,480,l),
(560,480,l),
(560,640,l)
);
},
{
closed = 1;
nodes = (
(80,640,l),
(240,640,l),
(240,480,l),
(80,480,l)
);
},
{
closed = 1;
nodes = (
(560,160,l),
(720,160,l),
(720,0,l),
(560,0,l)
);
}
);
width = 800;
}
);
unicode = 1642;
},
{
glyphname = "fivepointedstar-arab";
layers = (
{
layerId = m000;
shapes = (
{
closed = 1;
nodes = (
(560,320,l),
(400,320,l),
(400,160,l),
(560,160,l)
);
},
{
closed = 1;
nodes = (
(560,-160,l),
(400,-160,l),
(400,160,l),
(240,160,l),
(240,0,l),
(80,0,l),
(80,160,l),
(240,160,l),
(240,320,l),
(80,320,l),
(80,480,l),
(240,480,l),
(240,320,l),
(400,320,l),
(400,640,l),
(560,640,l),
(560,320,l),
(720,320,l),
(720,480,l),
(880,480,l),
(880,320,l),
(720,320,l),
(720,160,l),
(880,160,l),
(880,0,l),
(720,0,l),
(720,160,l),
(560,160,l)
);
}
);
width = 960;
}
);
unicode = 1645;
},
{
glyphname = arabiccomma;
layers = (
{
layerId = m000;
shapes = (
{
closed = 1;
nodes = (
(240,320,l),
(240,160,l),
(400,160,l),
(400,0,l),
(80,0,l),
(80,320,l)
);
}
);
width = 480;
}
);
unicode = 1548;
},
{
glyphname = arabicquestionmark;
layers = (
{
layerId = m000;
shapes = (
{
closed = 1;
nodes = (
(240,640,l),
(560,640,l),
(560,480,l),
(240,480,l),
(240,320,l),
(560,320,l),
(560,160,l),
(240,160,l),
(240,320,l),
(80,320,l),
(80,480,l),
(240,480,l)
);
},
{
closed = 1;
nodes = (
(320,-80,l),
(480,-80,l),
(480,40,l),
(320,40,l)
);
}
);
width = 640;
}
);
unicode = 1567;
},
{
glyphname = "decimalseparator-arab";
layers = (
{
layerId = m000;
shapes = (
{
closed = 1;
nodes = (
(400,0,l),
(240,0,l),
(240,-160,l),
(80,-160,l),
(80,0,l),
(240,0,l),
(240,160,l),
(400,160,l)
);
}
);
width = 640;
}
);
unicode = 1643;
},
{
glyphname = "thousandsseparator-arab";
layers = (
{
layerId = m000;
shapes = (
{
closed = 1;
nodes = (
(400,0,l),
(240,0,l),
(240,-160,l),
(80,-160,l),
(80,0,l),
(240,0,l),
(240,320,l),
(400,320,l)
);
}
);
width = 480;
}
);
unicode = 1644;
},
{
glyphname = "symboldotaccentmod-arab";
layers = (
{
layerId = m000;
shapes = (
{
closed = 1;
nodes = (
(160,160,l),
(160,0,l),
(0,0,l),
(0,160,l)
);
}
);
}
);
unicode = 64434;
},
{
glyphname = "symboldotbelowmod-arab";
layers = (
{
layerId = m000;
shapes = (
{
closed = 1;
nodes = (
(160,0,l),
(160,-160,l),
(0,-160,l),
(0,0,l)
);
}
);
}
);
unicode = 64435;
},
{
glyphname = "symboltwodotsabovemod-arab";
layers = (
{
layerId = m000;
shapes = (
{
closed = 1;
nodes = (
(320,160,l),
(320,0,l),
(0,0,l),
(0,160,l)
);
}
);
}
);
unicode = 64436;
},
{
glyphname = "symboltwodotsbelowmod-arab";
layers = (
{
layerId = m000;
shapes = (
{
closed = 1;
nodes = (
(320,0,l),
(320,-160,l),
(0,-160,l),
(0,0,l)
);
}
);
}
);
unicode = 64437;
},
{
glyphname = "symbolthreedotsabovemod-arab";
layers = (
{
layerId = m000;
shapes = (
{
closed = 1;
nodes = (
(160,160,l),
(320,160,l),
(320,0,l),
(0,0,l),
(0,320,l),
(160,320,l)
);
}
);
}
);
unicode = 64438;
},
{
glyphname = "symbolthreedotspointingdownwardsbelowmod-arab";
layers = (
{
layerId = m000;
shapes = (
{
closed = 1;
nodes = (
(0,0,l),
(320,0,l),
(320,-160,l),
(160,-160,l),
(160,-280,l),
(0,-280,l)
);
}
);
}
);
unicode = 64441;
},
{
glyphname = uniE000;
layers = (
{
layerId = m000;
shapes = (
{
closed = 1;
nodes = (
(0,0,l),
(320,0,l),
(320,-160,l),
(160,-160,l),
(160,-280,l),
(0,-280,l)
);
}
);
}
);
unicode = 57344;
},
{
glyphname = "hamza-arab";
layers = (
{
anchors = (
{
name = "top-arab";
pos = (240,480);
},
{
name = "bottom-arab";
pos = (240,0);
}
);
layerId = m000;
shapes = (
{
closed = 1;
nodes = (
(400,480,l),
(400,320,l),
(240,320,l),
(240,160,l),
(400,160,l),
(400,0,l),
(80,0,l),
(80,320,l),
(240,320,l),
(240,480,l)
);
}
);
width = 480;
}
);
unicode = (1569,65152);
},
{
glyphname = uni0627_alt.short;
layers = (
{
layerId = m000;
shapes = (
{
closed = 1;
nodes = (
(240,480,l),
(240,0,l),
(80,0,l),
(80,480,l)
);
}
);
width = 320;
}
);
},
{
glyphname = "alef-arab.fina.short";
layers = (
{
layerId = m000;
shapes = (
{
closed = 1;
nodes = (
(80,0,l),
(80,480,l),
(240,480,l),
(240,160,l),
(320,160,l),
(320,0,l)
);
}
);
width = 320;
}
);
},
{
glyphname = "alef-arab";
layers = (
{
anchors = (
{
name = "top-arab";
pos = (160,640);
},
{
name = "bottom-arab";
pos = (160,0);
}
);
layerId = m000;
shapes = (
{
closed = 1;
nodes = (
(240,640,l),
(240,0,l),
(80,0,l),
(80,640,l)
);
}
);
width = 320;
}
);
unicode = (1575,65165);
},
{
glyphname = "alef-arab.fina";
layers = (
{
anchors = (
{
name = "top-arab";
pos = (160,640);
},
{
name = "bottom-arab";
pos = (160,0);
}
);
layerId = m000;
shapes = (
{
closed = 1;
nodes = (
(80,0,l),
(80,640,l),
(240,640,l),
(240,160,l),
(320,160,l),
(320,0,l)
);
}
);
width = 320;
}
);
unicode = 65166;
},
{
glyphname = arabictatweelmod;
layers = (
{
anchors = (
{
name = "top-arab";
pos = (80,160);
},
{
name = "bottom-arab";
pos = (80,0);
}
);
layerId = m000;
shapes = (
{
closed = 1;
nodes = (
(160,160,l),
(160,0,l),
(0,0,l),
(-19,0,o),
(-34,80,o),
(-19,160,o),
(0,160,qs)
);
}
);
width = 160;
}
);
unicode = (1600,57525);
},
{
glyphname = "dotlessbeh-arab";
layers = (
{
anchors = (
{
name = "top-arab";
pos = (440,320);
},
{
name = "bottom-arab";
pos = (440,0);
}
);
layerId = m000;
shapes = (
{
closed = 1;
nodes = (
(800,0,l),
(80,0,l),
(80,320,l),
(240,320,l),
(240,160,l),
(640,160,l),
(640,320,l),
(800,320,l)
);
}
);
width = 880;
}
);
unicode = 1646;
},
{
glyphname = "dotlessbeh-arab.fina";
layers = (
{
anchors = (
{
name = "top-arab";
pos = (440,320);
},
{
name = "bottom-arab";
pos = (440,0);
}
);
layerId = m000;
shapes = (
{
closed = 1;
nodes = (
(240,320,l),
(240,160,l),
(640,160,l),
(640,320,l),
(800,320,l),
(800,160,l),
(880,160,l),
(880,0,l),
(80,0,l),
(80,320,l)
);
}
);
width = 880;
}
);
},
{
glyphname = "uighurkazakhkirghizalefmaksura-arab.init";
layers = (
{
anchors = (
{
name = "top-arab";
pos = (160,320);
},
{
name = "bottom-arab";
pos = (160,0);
}
);
layerId = m000;
shapes = (
{
closed = 1;
nodes = (
(80,160,l),
(80,320,l),
(240,320,l),
(240,0,l),
(0,0,l),
(-19,0,o),
(-34,80,o),
(-19,160,o),
(0,160,qs)
);
}
);
width = 320;
}
);
unicode = 64488;
},
{
glyphname = "uighurkazakhkirghizalefmaksura-arab.medi";
layers = (
{
anchors = (
{
name = "top-arab";
pos = (160,320);
},
{
name = "bottom-arab";
pos = (160,0);
}
);
layerId = m000;
shapes = (
{
closed = 1;
nodes = (
(80,160,l),
(80,320,l),
(240,320,l),
(240,160,l),
(320,160,l),
(320,0,l),
(0,0,l),
(-19,0,o),
(-34,80,o),
(-19,160,o),
(0,160,qs)
);
}
);
width = 320;
}
);
unicode = 64489;
},
{
glyphname = uniE002;
layers = (
{
anchors = (
{
name = "top-arab";
pos = (320,320);
},
{
name = "bottom-arab";
pos = (320,0);
}
);
layerId = m000;
shapes = (
{
closed = 1;
nodes = (
(240,160,l),
(240,320,l),
(400,320,l),
(400,0,l),
(0,0,l),
(-19,0,o),
(-34,80,o),
(-19,160,o),
(0,160,qs)
);
}
);
width = 480;
}
);
unicode = 57346;
},
{
glyphname = uniE003;
layers = (
{
anchors = (
{
name = "top-arab";
pos = (320,320);
},
{
name = "bottom-arab";
pos = (320,0);
}
);
layerId = m000;
shapes = (
{
closed = 1;
nodes = (
(240,160,l),
(240,320,l),
(400,320,l),
(400,160,l),
(480,160,l),
(480,0,l),
(0,0,l),
(-19,0,o),
(-34,80,o),
(-19,160,o),
(0,160,qs)
);
}
);
width = 480;
}
);
unicode = 57347;
},
{
glyphname = uniE006;
layers = (
{
anchors = (
{
name = "top-arab";
pos = (480,320);
},
{
name = "bottom-arab";
pos = (480,0);
}
);
layerId = m000;
shapes = (
{
closed = 1;
nodes = (
(400,160,l),
(400,320,l),
(560,320,l),
(560,0,l),
(0,0,l),
(-19,0,o),
(-34,80,o),
(-19,160,o),
(0,160,qs)
);
}
);
width = 640;
}
);
unicode = 57350;
},
{
glyphname = uniE007;
layers = (
{
anchors = (
{
name = "top-arab";
pos = (480,320);
},
{
name = "bottom-arab";
pos = (480,0);
}
);
layerId = m000;
shapes = (
{
closed = 1;
nodes = (
(400,160,l),
(400,320,l),
(560,320,l),
(560,160,l),
(640,160,l),
(640,0,l),
(0,0,l),
(-19,0,o),
(-34,80,o),
(-19,160,o),
(0,160,qs)
);
}
);
width = 640;
}
);
unicode = 57351;
},
{
glyphname = "dotlessbeh-arab.alt";
layers = (
{
anchors = (
{
name = "top-arab";
pos = (440,320);
},
{
name = "bottom-arab";
pos = (440,0);
}
);
layerId = m000;
shapes = (
{
closed = 1;
nodes = (
(800,0,l),
(80,0,l),
(80,320,l),
(240,320,l),
(240,160,l),
(640,160,l),
(640,320,l),
(800,320,l)
);
}
);
width = 880;
}
);
},
{
glyphname = "dotlessbeh-arab.fina.alt";
layers = (
{
anchors = (
{
name = "top-arab";
pos = (440,320);
},
{
name = "bottom-arab";
pos = (440,0);
}
);
layerId = m000;
shapes = (
{
closed = 1;
nodes = (
(240,320,l),
(240,160,l),
(640,160,l),
(640,320,l),
(800,320,l),
(800,160,l),
(880,160,l),
(880,0,l),
(80,0,l),
(80,320,l)
);
}
);
width = 880;
}
);
},
{
glyphname = uniE008;
layers = (
{
anchors = (
{
name = "top-arab";
pos = (360,440);
},
{
name = "bottom-arab";
pos = (240,-320);
}
);
layerId = m000;
shapes = (
{
closed = 1;
nodes = (
(640,0,l),
(240,0,l),
(240,-320,l),
(80,-320,l),
(80,0,l),
(240,0,l),
(240,160,l),
(480,160,l),
(480,280,l),
(200,280,l),
(200,440,l),
(480,440,l),
(480,280,l),
(640,280,l)
);
}
);
width = 720;
}
);
unicode = 57352;
},
{
glyphname = uniE009;
layers = (
{
anchors = (
{
name = "top-arab";
pos = (360,440);
},
{
name = "bottom-arab";
pos = (240,-320);
}
);
layerId = m000;
shapes = (
{
closed = 1;
nodes = (
(720,160,l),
(720,0,l),
(240,0,l),
(240,-320,l),
(80,-320,l),
(80,0,l),
(240,0,l),
(240,160,l),
(480,160,l),
(480,280,l),
(200,280,l),
(200,440,l),
(480,440,l),
(480,280,l),
(640,280,l),
(640,160,l)
);
}
);
width = 720;
}
);
unicode = 57353;
},
{
glyphname = "hah-arab";
layers = (
{
anchors = (
{
name = "top-arab";
pos = (360,440);
},
{
name = "bottom-arab";
pos = (480,-320);
}
);
layerId = m000;
shapes = (
{
closed = 1;
nodes = (
(640,0,l),
(240,0,l),
(240,-160,l),
(640,-160,l),
(640,-320,l),
(240,-320,l),
(240,-160,l),
(80,-160,l),
(80,0,l),
(240,0,l),
(240,160,l),
(480,160,l),
(480,280,l),
(200,280,l),
(200,440,l),
(480,440,l),
(480,280,l),
(640,280,l)
);
}
);
width = 720;
}
);
unicode = (1581,65185);
},
{
glyphname = "hah-arab.fina";
layers = (
{
anchors = (
{
name = "top-arab";
pos = (360,440);
},
{
name = "bottom-arab";
pos = (480,-320);
}
);
layerId = m000;
shapes = (
{
closed = 1;
nodes = (
(720,160,l),
(720,0,l),
(240,0,l),
(240,-160,l),
(640,-160,l),
(640,-320,l),
(240,-320,l),
(240,-160,l),
(80,-160,l),
(80,0,l),
(240,0,l),
(240,160,l),
(480,160,l),
(480,280,l),
(200,280,l),
(200,440,l),
(480,440,l),
(480,280,l),
(640,280,l),
(640,160,l)
);
}
);
width = 720;
}
);
unicode = 65186;
},
{
glyphname = "hah-arab.init";
layers = (
{
anchors = (
{
name = "top-arab";
pos = (200,440);
},
{
name = "bottom-arab";
pos = (240,0);
}
);
layerId = m000;
shapes = (
{
closed = 1;
nodes = (
(480,0,l),
(0,0,l),
(-19,0,o),
(-34,80,o),
(-19,160,o),
(0,160,qs),
(320,160,l),
(320,280,l),
(80,280,l),
(80,440,l),
(320,440,l),
(320,280,l),
(480,280,l)
);
}
);
width = 560;
}
);
unicode = 65187;
},
{
glyphname = "hah-arab.medi";
layers = (
{
anchors = (
{
name = "top-arab";
pos = (200,440);
},
{
name = "bottom-arab";
pos = (240,0);
}
);
layerId = m000;
shapes = (
{
closed = 1;
nodes = (
(560,160,l),
(560,0,l),
(0,0,l),
(-19,0,o),
(-34,80,o),
(-19,160,o),
(0,160,qs),
(320,160,l),
(320,280,l),
(80,280,l),
(80,440,l),
(320,440,l),
(320,280,l),
(480,280,l),
(480,160,l)
);
}
);
width = 560;
}
);
unicode = 65188;
},
{
glyphname = "dal-arab";
layers = (
{
anchors = (
{
name = "top-arab";
pos = (200,440);
},
{
name = "bottom-arab";
pos = (200,0);
}
);
layerId = m000;
shapes = (
{
closed = 1;
nodes = (
(280,440,l),
(280,280,l),
(440,280,l),
(440,0,l),
(40,0,l),
(40,160,l),
(280,160,l),
(280,280,l),
(120,280,l),
(120,440,l)
);
}
);
width = 520;
}
);
unicode = (1583,65193);
},
{
glyphname = "dal-arab.fina";
layers = (
{
anchors = (
{
name = "top-arab";
pos = (240,440);
},
{
name = "bottom-arab";
pos = (240,0);
}
);
layerId = m000;
shapes = (
{
closed = 1;
nodes = (
(320,440,l),
(320,280,l),
(480,280,l),
(480,160,l),
(560,160,l),
(560,0,l),
(40,0,l),
(40,160,l),
(320,160,l),
(320,280,l),
(160,280,l),
(160,440,l)
);
}
);
width = 560;
}
);
unicode = 65194;
},
{
glyphname = "reh-arab";
layers = (
{
anchors = (
{
name = "top-arab";
pos = (320,320);
},
{
name = "bottom-arab";
pos = (240,-320);
}
);
layerId = m000;
shapes = (
{
closed = 1;
nodes = (
(400,320,l),
(400,-160,l),
(240,-160,l),
(240,-320,l),
(80,-320,l),
(80,-160,l),
(240,-160,l),
(240,320,l)
);
}
);
width = 480;
}
);
unicode = (1585,65197);
},
{
glyphname = "reh-arab.fina";
layers = (
{
anchors = (
{
name = "top-arab";
pos = (240,320);
},
{
name = "bottom-arab";
pos = (240,-320);
}
);
layerId = m000;
shapes = (
{
closed = 1;
nodes = (
(400,0,l),
(400,-160,l),
(240,-160,l),
(240,-320,l),
(80,-320,l),
(80,-160,l),
(240,-160,l),
(240,320,l),
(400,320,l),
(400,160,l),
(480,160,l),
(480,0,l)
);
}
);
width = 480;
}
);
unicode = 65198;
},
{
glyphname = "seen-arab";
layers = (
{
anchors = (
{
name = "top-arab";
pos = (920,320);
},
{
name = "bottom-arab";
pos = (920,0);
}
);
layerId = m000;
shapes = (
{
closed = 1;
nodes = (
(560,-320,l),
(240,-320,l),
(240,-160,l),
(80,-160,l),
(80,160,l),
(240,160,l),
(240,-160,l),
(560,-160,l),
(560,320,l),
(720,320,l),
(720,160,l),
(840,160,l),
(840,320,l),
(1000,320,l),
(1000,160,l),
(1120,160,l),
(1120,320,l),
(1280,320,l),
(1280,0,l),
(720,0,l),
(720,-160,l),
(560,-160,l)
);
}
);
width = 1360;
}
);
unicode = (1587,65201);
},
{
glyphname = "seen-arab.fina";
layers = (
{
anchors = (
{
name = "top-arab";
pos = (920,320);
},
{
name = "bottom-arab";
pos = (920,0);
}
);
layerId = m000;
shapes = (
{
closed = 1;
nodes = (
(560,-320,l),
(240,-320,l),
(240,-160,l),
(80,-160,l),
(80,160,l),
(240,160,l),
(240,-160,l),
(560,-160,l),
(560,320,l),
(720,320,l),
(720,160,l),
(840,160,l),
(840,320,l),
(1000,320,l),
(1000,160,l),
(1120,160,l),
(1120,320,l),
(1280,320,l),
(1280,160,l),
(1360,160,l),
(1360,0,l),
(720,0,l),
(720,-160,l),
(560,-160,l)
);
}
);
width = 1360;
}
);
unicode = 65202;
},
{
glyphname = "seen-arab.init";
layers = (
{
anchors = (
{
name = "top-arab";
pos = (440,320);
},
{
name = "bottom-arab";
pos = (440,0);
}
);
layerId = m000;
shapes = (
{
closed = 1;
nodes = (
(800,0,l),
(0,0,l),
(-19,0,o),
(-34,80,o),
(-19,160,o),
(0,160,qs),
(80,160,l),
(80,320,l),
(240,320,l),
(240,160,l),
(360,160,l),
(360,320,l),
(520,320,l),
(520,160,l),
(640,160,l),
(640,320,l),
(800,320,l)
);
}
);
width = 880;
}
);
unicode = 65203;
},
{
glyphname = "seen-arab.medi";
layers = (
{
anchors = (
{
name = "top-arab";
pos = (440,320);
},
{
name = "bottom-arab";
pos = (440,0);
}
);
layerId = m000;
shapes = (
{
closed = 1;
nodes = (
(0,0,l),
(-19,0,o),
(-34,80,o),
(-19,160,o),
(0,160,qs),
(80,160,l),
(80,320,l),
(240,320,l),
(240,160,l),
(360,160,l),
(360,320,l),
(520,320,l),
(520,160,l),
(640,160,l),
(640,320,l),
(800,320,l),
(800,160,l),
(880,160,l),
(880,0,l)
);
}
);
width = 880;
}
);
unicode = 65204;
},
{
glyphname = "sad-arab";
layers = (
{
anchors = (
{
name = "top-arab";
pos = (1040,320);
},
{
name = "bottom-arab";
pos = (1040,0);
}
);
layerId = m000;
shapes = (
{
closed = 1;
nodes = (
(560,-160,l),
(240,-160,l),
(80,-160,l),
(80,160,l),
(240,160,l),
(240,-320,l),
(560,-320,l),
(560,320,l),
(720,320,l),
(720,160,l),
(840,160,l),
(840,320,l),
(1240,320,l),
(1240,0,l),
(720,0,l),
(720,-160,l)
);
}
);
width = 1320;
}
);
unicode = (1589,65209);
},
{
glyphname = "sad-arab.fina";
layers = (
{
anchors = (
{
name = "top-arab";
pos = (1040,320);
},
{
name = "bottom-arab";
pos = (1040,0);
}
);
layerId = m000;
shapes = (
{
closed = 1;
nodes = (
(560,-160,l),
(560,-320,l),
(240,-320,l),
(240,-160,l),
(80,-160,l),
(80,160,l),
(240,160,l),
(240,-160,l),
(560,-160,l),
(560,320,l),
(720,320,l),
(720,160,l),
(840,160,l),
(840,320,l),
(1240,320,l),
(1240,160,l),
(1320,160,l),
(1320,0,l),
(720,0,l),
(720,-160,l)
);
}
);
width = 1320;
}
);
unicode = 65210;
},
{
glyphname = "sad-arab.init";
layers = (
{
anchors = (
{
name = "top-arab";
pos = (560,320);
},
{
name = "bottom-arab";
pos = (560,0);
}
);
layerId = m000;
shapes = (
{
closed = 1;
nodes = (
(760,320,l),
(760,0,l),
(0,0,l),
(-19,0,o),
(-34,80,o),
(-19,160,o),
(0,160,qs),
(80,160,l),
(80,320,l),
(240,320,l),
(240,160,l),
(360,160,l),
(360,320,l)
);
}
);
width = 840;
}
);
unicode = 65211;
},
{
glyphname = "sad-arab.medi";
layers = (
{
anchors = (
{
name = "top-arab";
pos = (560,320);
},
{
name = "bottom-arab";
pos = (560,0);
}
);
layerId = m000;
shapes = (
{
closed = 1;
nodes = (
(760,320,l),
(760,160,l),
(840,160,l),
(840,0,l),
(0,0,l),
(-19,0,o),
(-34,80,o),
(-19,160,o),
(0,160,qs),
(80,160,l),
(80,320,l),
(240,320,l),
(240,160,l),
(360,160,l),
(360,320,l)
);
}
);
width = 840;
}
);
unicode = 65212;
},
{
glyphname = "tah-arab";
layers = (
{
anchors = (
{
name = "top-arab";
pos = (320,640);
},
{
name = "bottom-arab";
pos = (400,0);
}
);
layerId = m000;
shapes = (
{
closed = 1;
nodes = (
(680,0,l),
(80,0,l),
(80,160,l),
(240,160,l),
(240,640,l),
(400,640,l),
(400,320,l),
(680,320,l)
);
}
);
width = 760;
}
);
unicode = (1591,65217);
},
{
glyphname = "tah-arab.fina";
layers = (
{
anchors = (
{
name = "top-arab";
pos = (320,640);
},
{
name = "bottom-arab";
pos = (400,0);
}
);
layerId = m000;
shapes = (
{
closed = 1;
nodes = (
(400,640,l),
(400,320,l),
(680,320,l),
(680,160,l),
(760,160,l),
(760,0,l),
(80,0,l),
(80,160,l),
(240,160,l),
(240,640,l)
);
}
);
width = 760;
}
);
unicode = 65218;
},
{
glyphname = "tah-arab.init";
layers = (
{
anchors = (
{
name = "top-arab";
pos = (160,640);
},
{
name = "bottom-arab";
pos = (320,0);
}
);
layerId = m000;
shapes = (
{
closed = 1;
nodes = (
(520,0,l),
(0,0,l),
(-19,0,o),
(-34,80,o),
(-19,160,o),
(0,160,qs),
(80,160,l),
(80,640,l),
(240,640,l),
(240,320,l),
(520,320,l)
);
}
);
width = 600;
}
);
unicode = 65219;
},
{
glyphname = "tah-arab.medi";
layers = (
{
anchors = (
{
name = "top-arab";
pos = (160,640);
},
{
name = "bottom-arab";
pos = (320,0);
}
);
layerId = m000;
shapes = (
{
closed = 1;
nodes = (
(240,640,l),
(240,320,l),
(520,320,l),
(520,160,l),
(600,160,l),
(600,0,l),
(0,0,l),
(-19,0,o),
(-34,80,o),
(-19,160,o),
(0,160,qs),
(80,160,l),
(80,640,l)
);
}
);
width = 600;
}
);
unicode = 65220;
},
{
glyphname = "ain-arab";
layers = (
{
anchors = (
{
name = "top-arab";
pos = (400,440);
},
{
name = "bottom-arab";
pos = (400,-320);
}
);
layerId = m000;
shapes = (
{
closed = 1;
nodes = (
(400,440,l),
(560,440,l),
(560,280,l),
(400,280,l),
(400,160,l),
(560,160,l),
(560,0,l),
(240,0,l),
(240,-160,l),
(560,-160,l),
(560,-320,l),
(240,-320,l),
(240,-160,l),
(80,-160,l),
(80,0,l),
(240,0,l),
(240,280,l),
(400,280,l)
);
}
);
width = 640;
}
);
unicode = (1593,65225);
},
{
glyphname = "ain-arab.fina";
layers = (
{
anchors = (
{
name = "top-arab";
pos = (480,400);
},
{
name = "bottom-arab";
pos = (400,-320);
}
);
layerId = m000;
shapes = (
{
closed = 1;
nodes = (
(240,280,l),
(240,400,l),
(720,400,l),
(720,280,l),
(560,280,l),
(560,160,l),
(800,160,l),
(800,0,l),
(240,0,l),
(240,-160,l),
(720,-160,l),
(720,-320,l),
(240,-320,l),
(240,-160,l),
(80,-160,l),
(80,0,l),
(240,0,l),
(240,160,l),
(400,160,l),
(400,280,l)
);
}
);
width = 800;
}
);
unicode = 65226;
},
{
glyphname = "ain-arab.init";
layers = (
{
anchors = (
{
name = "top-arab";
pos = (240,440);
},
{
name = "bottom-arab";
pos = (240,0);
}
);
layerId = m000;
shapes = (
{
closed = 1;
nodes = (
(240,440,l),
(400,440,l),
(400,280,l),
(240,280,l),
(240,160,l),
(400,160,l),
(400,0,l),
(0,0,l),
(-19,0,o),
(-34,80,o),
(-19,160,o),
(0,160,qs),
(80,160,l),
(80,280,l),
(240,280,l)
);
}
);
width = 480;
}
);
unicode = 65227;
},
{
glyphname = "ain-arab.medi";
layers = (
{
anchors = (
{
name = "top-arab";
pos = (320,400);
},
{
name = "bottom-arab";
pos = (320,0);
}
);
layerId = m000;
shapes = (
{
closed = 1;
nodes = (
(80,280,l),
(80,400,l),
(560,400,l),
(560,280,l),
(400,280,l),
(400,160,l),
(640,160,l),
(640,0,l),
(0,0,l),
(-19,0,o),
(-34,80,o),
(-19,160,o),
(0,160,qs),
(240,160,l),
(240,280,l)
);
}
);
width = 640;
}
);
unicode = 65228;
},
{
glyphname = "dotlessfeh-arab";
layers = (
{
anchors = (
{
name = "top-arab";
pos = (560,320);
},
{
name = "bottom-arab";
pos = (560,0);
}
);
layerId = m000;
shapes = (
{
closed = 1;
nodes = (
(880,0,l),
(80,0,l),
(80,320,l),
(240,320,l),
(240,160,l),
(560,160,l),
(560,320,l),
(880,320,l)
);
}
);
width = 960;
}
);
unicode = (1697,2235);
},
{
glyphname = "dotlessfeh-arab.fina";
layers = (
{
anchors = (
{
name = "top-arab";
pos = (560,320);
},
{
name = "bottom-arab";
pos = (560,0);
}
);
layerId = m000;
shapes = (
{
closed = 1;
nodes = (
(880,320,l),
(880,160,l),
(960,160,l),
(960,0,l),
(80,0,l),
(80,320,l),
(240,320,l),
(240,160,l),
(560,160,l),
(560,320,l)
);
}
);
width = 960;
}
);
},
{
glyphname = "dotlessfeh-arab.init";
layers = (
{
anchors = (
{
name = "top-arab";
pos = (240,320);
},
{
name = "bottom-arab";
pos = (240,0);
}
);
layerId = m000;
shapes = (
{
closed = 1;
nodes = (
(400,0,l),
(0,0,l),
(-19,0,o),
(-34,80,o),
(-19,160,o),
(0,160,qs),
(80,160,l),
(80,320,l),
(400,320,l)
);
}
);
width = 480;
}
);
},
{
glyphname = "dotlessfeh-arab.medi";
layers = (
{
anchors = (
{
name = "top-arab";
pos = (240,320);
},
{
name = "bottom-arab";
pos = (240,0);
}
);
layerId = m000;
shapes = (
{
closed = 1;
nodes = (
(400,320,l),
(400,160,l),
(480,160,l),
(480,0,l),
(0,0,l),
(-19,0,o),
(-34,80,o),
(-19,160,o),
(0,160,qs),
(80,160,l),
(80,320,l)
);
}
);
width = 480;
}
);
},
{
glyphname = "dotlessqaf-arab";
layers = (
{
anchors = (
{
name = "top-arab";
pos = (560,320);
},
{
name = "bottom-arab";
pos = (400,-320);
}
);
layerId = m000;
shapes = (
{
closed = 1;
nodes = (
(560,-160,l),
(560,-320,l),
(240,-320,l),
(240,-160,l),
(80,-160,l),
(80,160,l),
(240,160,l),
(240,-160,l),
(560,-160,l),
(560,0,l),
(400,0,l),
(400,320,l),
(720,320,l),
(720,-160,l)
);
}
);
width = 800;
}
);
unicode = (1647,2236);
},
{
glyphname = uniE014;
layers = (
{
anchors = (
{
name = "top-arab";
pos = (560,320);
},
{
name = "bottom-arab";
pos = (400,-320);
}
);
layerId = m000;
shapes = (
{
closed = 1;
nodes = (
(560,-160,l),
(560,-320,l),
(240,-320,l),
(240,-160,l),
(80,-160,l),
(80,160,l),
(240,160,l),
(240,-160,l),
(560,-160,l),
(560,0,l),
(400,0,l),
(400,320,l),
(720,320,l),
(720,160,l),
(800,160,l),
(800,0,l),
(720,0,l),
(720,-160,l)
);
}
);
width = 800;
}
);
},
{
glyphname = "keheh-arab";
layers = (
{
anchors = (
{
name = "top-arab";
pos = (160,320);
},
{
name = "bottom-arab";
pos = (560,0);
}
);
layerId = m000;
shapes = (
{
closed = 1;
nodes = (
(800,0,l),
(80,0,l),
(80,320,l),
(240,320,l),
(240,160,l),
(560,160,l),
(560,320,l),
(400,320,l),
(400,480,l),
(560,480,l),
(560,640,l),
(800,640,l),
(800,480,l),
(560,480,l),
(560,320,l),
(800,320,l)
);
}
);
width = 880;
}
);
unicode = (1705,64398);
},
{
glyphname = "keheh-arab.fina";
layers = (
{
anchors = (
{
name = "top-arab";
pos = (160,320);
},
{
name = "bottom-arab";
pos = (560,0);
}
);
layerId = m000;
shapes = (
{
closed = 1;
nodes = (
(560,640,l),
(800,640,l),
(800,480,l),
(560,480,l),
(560,320,l),
(800,320,l),
(800,160,l),
(880,160,l),
(880,0,l),
(80,0,l),
(80,320,l),
(240,320,l),
(240,160,l),
(560,160,l),
(560,320,l),
(400,320,l),
(400,480,l),
(560,480,l)
);
}
);
width = 880;
}
);
unicode = 64399;
},
{
glyphname = "keheh-arab.init";
layers = (
{
anchors = (
{
name = "top-arab";
pos = (240,640);
},
{
name = "bottom-arab";
pos = (240,0);
}
);
layerId = m000;
shapes = (
{
closed = 1;
nodes = (
(240,640,l),
(480,640,l),
(480,480,l),
(240,480,l),
(240,320,l),
(480,320,l),
(480,0,l),
(0,0,l),
(-19,0,o),
(-34,80,o),
(-19,160,o),
(0,160,qs),
(240,160,l),
(240,320,l),
(80,320,l),
(80,480,l),
(240,480,l)
);
}
);
width = 560;
}
);
unicode = 64400;
},
{
glyphname = "keheh-arab.medi";
layers = (
{
anchors = (
{
name = "top-arab";
pos = (240,640);
},
{
name = "bottom-arab";
pos = (240,0);
}
);
layerId = m000;
shapes = (
{
closed = 1;
nodes = (
(240,640,l),
(480,640,l),
(480,480,l),
(240,480,l),
(240,320,l),
(480,320,l),
(480,160,l),
(560,160,l),
(560,0,l),
(0,0,l),
(-19,0,o),
(-34,80,o),
(-19,160,o),
(0,160,qs),
(240,160,l),
(240,320,l),
(80,320,l),
(80,480,l),
(240,480,l)
);
}
);
width = 560;
}
);
unicode = 64401;
},
{
glyphname = uniE021;
layers = (
{
anchors = (
{
name = "top-arab";
pos = (480,320);
},
{
name = "bottom-arab";
pos = (480,0);
}
);
layerId = m000;
shapes = (
{
closed = 1;
nodes = (
(880,0,l),
(80,0,l),
(80,320,l),
(240,320,l),
(240,160,l),
(720,160,l),
(720,640,l),
(880,640,l)
);
}
);
width = 960;
}
);
unicode = 57377;
},
{
glyphname = uniE022;
layers = (
{
anchors = (
{
name = "top-arab";
pos = (480,320);
},
{
name = "bottom-arab";
pos = (480,0);
}
);
layerId = m000;
shapes = (
{
closed = 1;
nodes = (
(880,640,l),
(880,160,l),
(960,160,l),
(960,0,l),
(80,0,l),
(80,320,l),
(240,320,l),
(240,160,l),
(720,160,l),
(720,640,l)
);
}
);
width = 960;
}
);
unicode = 57378;
},
{
glyphname = "lam-arab";
layers = (
{
anchors = (
{
name = "top-arab";
pos = (240,160);
},
{
name = "bottom-arab";
pos = (400,-320);
}
);
layerId = m000;
shapes = (
{
closed = 1;
nodes = (
(560,-160,l),
(560,-320,l),
(240,-320,l),
(240,-160,l),
(80,-160,l),
(80,160,l),
(240,160,l),
(240,-160,l),
(560,-160,l),
(560,640,l),
(720,640,l),
(720,-160,l)
);
}
);
width = 800;
}
);
unicode = (1604,65245);
},
{
glyphname = "lam-arab.fina";
layers = (
{
anchors = (
{
name = "top-arab";
pos = (240,160);
},
{
name = "bottom-arab";
pos = (400,-320);
}
);
layerId = m000;
shapes = (
{
closed = 1;
nodes = (
(560,-160,l),
(560,-320,l),
(240,-320,l),
(240,-160,l),
(80,-160,l),
(80,160,l),
(240,160,l),
(240,-160,l),
(560,-160,l),
(560,640,l),
(720,640,l),
(720,160,l),
(800,160,l),
(800,0,l),
(720,0,l),
(720,-160,l)
);
}
);
width = 800;
}
);
unicode = 65246;
},
{
glyphname = "lam-arab.init";
layers = (
{
anchors = (
{
name = "top-arab";
pos = (160,640);
},
{
name = "bottom-arab";
pos = (160,0);
}
);
layerId = m000;
shapes = (
{
closed = 1;
nodes = (
(240,640,l),
(240,0,l),
(0,0,l),
(-19,0,o),
(-34,80,o),
(-19,160,o),
(0,160,qs),
(80,160,l),
(80,640,l)
);
}
);
width = 320;
}
);
unicode = 65247;
},
{
glyphname = "lam-arab.medi";
layers = (
{
anchors = (
{
name = "top-arab";
pos = (160,640);
},
{
name = "bottom-arab";
pos = (160,0);
}
);
layerId = m000;
shapes = (
{
closed = 1;
nodes = (
(80,160,l),
(80,640,l),
(240,640,l),
(240,160,l),
(320,160,l),
(320,0,l),
(0,0,l),
(-19,0,o),
(-34,80,o),
(-19,160,o),
(0,160,qs)
);
}
);
width = 320;
}
);
unicode = 65248;
},
{
glyphname = "meem-arab";
layers = (
{
anchors = (
{
name = "top-arab";
pos = (400,320);
},
{
name = "bottom-arab";
pos = (240,-320);
}
);
layerId = m000;
shapes = (
{
closed = 1;
nodes = (
(240,0,l),
(240,-320,l),
(80,-320,l),
(80,160,l),
(240,160,l),
(240,320,l),
(560,320,l),
(560,0,l)
);
}
);
width = 640;
}
);
unicode = (1605,65249);
},
{
glyphname = "meem-arab.fina";
layers = (
{
anchors = (
{
name = "top-arab";
pos = (400,320);
},
{
name = "bottom-arab";
pos = (240,-320);
}
);
layerId = m000;
shapes = (
{
closed = 1;
nodes = (
(240,0,l),
(240,-320,l),
(80,-320,l),
(80,160,l),
(240,160,l),
(240,320,l),
(560,320,l),
(560,160,l),
(640,160,l),
(640,0,l)
);
}
);
width = 640;
}
);
unicode = 65250;
},
{
glyphname = "meem-arab.init";
layers = (
{
anchors = (
{
name = "top-arab";
pos = (240,320);
},
{
name = "bottom-arab";
pos = (240,0);
}
);
layerId = m000;
shapes = (
{
closed = 1;
nodes = (
(0,0,l),
(-19,0,o),
(-34,80,o),
(-19,160,o),
(0,160,qs),
(80,160,l),
(80,320,l),
(400,320,l),
(400,0,l)
);
}
);
width = 480;
}
);
unicode = 65251;
},
{
glyphname = "meem-arab.medi";
layers = (
{
anchors = (
{
name = "top-arab";
pos = (240,320);
},
{
name = "bottom-arab";
pos = (240,0);
}
);
layerId = m000;
shapes = (
{
closed = 1;
nodes = (
(400,320,l),
(400,160,l),
(480,160,l),
(480,0,l),
(0,0,l),
(-19,0,o),
(-34,80,o),
(-19,160,o),
(0,160,qs),
(80,160,l),
(80,320,l)
);
}
);
width = 480;
}
);
unicode = 65252;
},
{
glyphname = "noonghunna-arab";
layers = (
{
anchors = (
{
name = "top-arab";
pos = (240,160);
},
{
name = "bottom-arab";
pos = (400,-320);
}
);
layerId = m000;
shapes = (
{
closed = 1;
nodes = (
(560,-160,l),
(560,-320,l),
(240,-320,l),
(240,-160,l),
(80,-160,l),
(80,160,l),
(240,160,l),
(240,-160,l),
(560,-160,l),
(560,320,l),
(720,320,l),
(720,-160,l)
);
}
);
width = 800;
}
);
unicode = (1722,2237,64414);
},
{
glyphname = "noonghunna-arab.fina";
layers = (
{
anchors = (
{
name = "top-arab";
pos = (240,160);
},
{
name = "bottom-arab";
pos = (400,-320);
}
);
layerId = m000;
shapes = (
{
closed = 1;
nodes = (
(560,-160,l),
(560,-320,l),
(240,-320,l),
(240,-160,l),
(80,-160,l),
(80,160,l),
(240,160,l),
(240,-160,l),
(560,-160,l),
(560,320,l),
(720,320,l),
(720,160,l),
(800,160,l),
(800,0,l),
(720,0,l),
(720,-160,l)
);
}
);
width = 800;
}
);
unicode = 64415;
},
{
glyphname = "waw-arab";
layers = (
{
anchors = (
{
name = "top-arab";
pos = (240,320);
},
{
name = "bottom-arab";
pos = (240,-320);
}
);
layerId = m000;
shapes = (
{
closed = 1;
nodes = (
(400,320,l),
(400,-160,l),
(240,-160,l),
(240,-320,l),
(80,-320,l),
(80,-160,l),
(240,-160,l),
(240,0,l),
(80,0,l),
(80,320,l)
);
}
);
width = 480;
}
);
unicode = (1608,65261);
},
{
glyphname = "waw-arab.fina";
layers = (
{
anchors = (
{
name = "top-arab";
pos = (240,320);
},
{
name = "bottom-arab";
pos = (240,-320);
}
);
layerId = m000;
shapes = (
{
closed = 1;
nodes = (
(400,320,l),
(400,160,l),
(480,160,l),
(480,0,l),
(400,0,l),
(400,-160,l),
(240,-160,l),
(240,-320,l),
(80,-320,l),
(80,-160,l),
(240,-160,l),
(240,0,l),
(80,0,l),
(80,320,l)
);
},
{
closed = 1;
nodes = (
(120,252,l),
(120,44,l),
(120,44,l),
(120,252,l)
);
}
);
width = 480;
}
);
unicode = 65262;
},
{
glyphname = "heh-arab";
layers = (
{
anchors = (
{
name = "top-arab";
pos = (240,480);
},
{
name = "bottom-arab";
pos = (240,0);
}
);
layerId = m000;
shapes = (
{
closed = 1;
nodes = (
(400,0,l),
(80,0,l),
(80,480,l),
(240,480,l),
(240,320,l),
(400,320,l)
);
}
);
width = 480;
}
);
unicode = (1607,1749,65257);
},
{
glyphname = "heh-arab.fina";
layers = (
{
anchors = (
{
name = "top-arab";
pos = (240,480);
},
{
name = "bottom-arab";
pos = (240,0);
}
);
layerId = m000;
shapes = (
{
closed = 1;
nodes = (
(80,320,l),
(240,320,l),
(240,480,l),
(400,480,l),
(400,160,l),
(480,160,l),
(480,0,l),
(80,0,l)
);
}
);
width = 480;
}
);
unicode = 65258;
},
{
glyphname = "heh-arab.init";
layers = (
{
anchors = (
{
name = "top-arab";
pos = (200,320);
},
{
name = "bottom-arab";
pos = (240,0);
}
);
layerId = m000;
shapes = (
{
closed = 1;
nodes = (
(520,0,l),
(0,0,l),
(-19,0,o),
(-34,80,o),
(-19,160,o),
(0,160,qs),
(80,160,l),
(80,320,l),
(360,320,l),
(360,480,l),
(520,480,l)
);
}
);
width = 600;
}
);
unicode = 65259;
},
{
glyphname = "heh-arab.medi";
layers = (
{
anchors = (
{
name = "top-arab";
pos = (200,320);
},
{
name = "bottom-arab";
pos = (200,-160);
}
);
layerId = m000;
shapes = (
{
closed = 1;
nodes = (
(80,-160,l),
(80,0,l),
(0,0,l),
(-19,0,o),
(-34,80,o),
(-19,160,o),
(0,160,qs),
(80,160,l),
(80,320,l),
(360,320,l),
(360,160,l),
(440,160,l),
(440,0,l),
(360,0,l),
(360,-160,l)
);
}
);
width = 440;
}
);
unicode = 65260;
},
{
glyphname = "hehgoal-arab.fina";
layers = (
{
anchors = (
{
name = "top-arab";
pos = (240,480);
},
{
name = "bottom-arab";
pos = (240,0);
}
);
layerId = m000;
shapes = (
{
closed = 1;
nodes = (
(400,0,l),
(400,320,l),
(240,320,l),
(240,0,l),
(80,0,l),
(80,320,l),
(240,320,l),
(240,480,l),
(400,480,l),
(400,320,l),
(560,320,l),
(560,160,l),
(640,160,l),
(640,0,l)
);
}
);
width = 640;
}
);
unicode = 64423;
},
{
glyphname = "hehgoal-arab.medi";
layers = (
{
anchors = (
{
name = "top-arab";
pos = (240,320);
},
{
name = "bottom-arab";
pos = (240,-160);
}
);
layerId = m000;
shapes = (
{
closed = 1;
nodes = (
(240,-160,l),
(240,0,l),
(0,0,l),
(-19,0,o),
(-34,80,o),
(-19,160,o),
(0,160,qs),
(80,160,l),
(80,320,l),
(240,320,l),
(240,160,l),
(480,160,l),
(480,0,l),
(400,0,l),
(400,-160,l)
);
}
);
width = 480;
}
);
unicode = 64425;
},
{
glyphname = "hehyehabove-arab";
layers = (
{
anchors = (
{
name = "top-arab";
pos = (240,960);
},
{
name = "bottom-arab";
pos = (240,0);
}
);
layerId = m000;
shapes = (
{
closed = 1;
nodes = (
(400,0,l),
(80,0,l),
(80,320,l),
(240,320,l),
(240,480,l),
(400,480,l)
);
},
{
closed = 1;
nodes = (
(80,440,l),
(80,320,l),
(-40,320,l),
(-40,440,l),
(80,440,l),
(80,520,l),
(-40,520,l),
(-40,720,l),
(80,720,l),
(80,840,l),
(200,840,l),
(200,720,l),
(80,720,l),
(80,640,l),
(200,640,l),
(200,440,l)
);
}
);
width = 480;
}
);
unicode = (1728,64420);
},
{
glyphname = "hehdoachashmee-arab";
layers = (
{
anchors = (
{
name = "top-arab";
pos = (200,320);
},
{
name = "bottom-arab";
pos = (240,0);
}
);
layerId = m000;
shapes = (
{
closed = 1;
nodes = (
(520,0,l),
(80,0,l),
(80,320,l),
(360,320,l),
(360,480,l),
(520,480,l)
);
}
);
width = 600;
}
);
unicode = (1726,64426);
},
{
glyphname = "hehdoachashmee-arab.fina";
layers = (
{
anchors = (
{
name = "top-arab";
pos = (200,320);
},
{
name = "bottom-arab";
pos = (200,0);
}
);
layerId = m000;
shapes = (
{
closed = 1;
nodes = (
(520,160,l),
(600,160,l),
(600,0,l),
(80,0,l),
(80,320,l),
(360,320,l),
(360,480,l),
(520,480,l)
);
}
);
width = 600;
}
);
unicode = 64427;
},
{
glyphname = "hehdoachashmee-arab.medi";
layers = (
{
anchors = (
{
name = "top-arab";
pos = (200,320);
},
{
name = "bottom-arab";
pos = (280,0);
}
);
layerId = m000;
shapes = (
{
closed = 1;
nodes = (
(520,160,l),
(600,160,l),
(600,0,l),
(0,0,l),
(-19,0,o),
(-34,80,o),
(-19,160,o),
(0,160,qs),
(80,160,l),
(80,320,l),
(360,320,l),
(360,480,l),
(520,480,l)
);
}
);
width = 600;
}
);
unicode = 64429;
},
{
glyphname = "alefmaksura-arab";
layers = (
{
anchors = (
{
name = "top-arab";
pos = (160,160);
},
{
name = "bottom-arab";
pos = (400,-320);
}
);
layerId = m000;
shapes = (
{
closed = 1;
nodes = (
(560,-160,l),
(560,-320,l),
(240,-320,l),
(240,-160,l),
(80,-160,l),
(80,160,l),
(240,160,l),
(240,-160,l),
(560,-160,l),
(560,0,l),
(400,0,l),
(400,280,l),
(560,280,l),
(560,440,l),
(720,440,l),
(720,280,l),
(560,280,l),
(560,160,l),
(720,160,l),
(720,-160,l)
);
}
);
width = 800;
}
);
unicode = (1609,1740,64508,65263);
},
{
glyphname = "farsiyeh-arab.fina";
layers = (
{
anchors = (
{
name = "top-arab";
pos = (240,160);
},
{
name = "bottom-arab";
pos = (400,-320);
}
);
layerId = m000;
shapes = (
{
closed = 1;
nodes = (
(560,-160,l),
(560,0,l),
(400,0,l),
(400,160,l),
(800,160,l),
(800,0,l),
(720,0,l),
(720,-160,l),
(560,-160,l),
(560,-320,l),
(240,-320,l),
(240,-160,l),
(80,-160,l),
(80,160,l),
(240,160,l),
(240,-160,l)
);
}
);
width = 800;
}
);
unicode = (64509,65264);
},
{
glyphname = "yehbarree-arab";
layers = (
{
anchors = (
{
name = "top-arab";
pos = (320,440);
},
{
name = "bottom-arab";
pos = (320,0);
}
);
layerId = m000;
shapes = (
{
closed = 1;
nodes = (
(400,440,l),
(400,280,l),
(240,280,l),
(240,160,l),
(600,160,l),
(600,0,l),
(80,0,l),
(80,280,l),
(240,280,l),
(240,440,l)
);
}
);
width = 680;
}
);
unicode = (1746,64430);
},
{
glyphname = "yehbarree-arab.fina";
layers = (
{
anchors = (
{
name = "top-arab";
pos = (320,160);
},
{
name = "bottom-arab";
pos = (320,-320);
}
);
layerId = m000;
shapes = (
{
closed = 1;
nodes = (
(560,160,l),
(560,0,l),
(240,0,l),
(240,-160,l),
(480,-160,l),
(480,-320,l),
(240,-320,l),
(240,-160,l),
(80,-160,l),
(80,160,l)
);
}
);
width = 560;
}
);
unicode = 64431;
},
{
glyphname = "yehbarree-arab.2.fina";
layers = (
{
anchors = (
{
name = "top-arab";
pos = (240,160);
},
{
name = "bottom-arab";
pos = (240,-320);
}
);
layerId = m000;
shapes = (
{
closed = 1;
nodes = (
(480,160,l),
(480,0,l),
(240,0,l),
(240,-160,l),
(560,-160,l),
(560,-320,l),
(240,-320,l),
(240,-160,l),
(80,-160,l),
(80,160,l)
);
}
);
width = 480;
}
);
},
{
glyphname = "alef_lam-arab.init";
layers = (
{
layerId = m000;
shapes = (
{
closed = 1;
nodes = (
(560,0,l),
(80,0,l),
(80,480,l),
(240,480,l),
(240,160,l),
(400,160,l),
(400,640,l),
(560,640,l)
);
}
);
width = 640;
}
);
},
{
glyphname = "alef_lam-arab.medi";
layers = (
{
layerId = m000;
shapes = (
{
closed = 1;
nodes = (
(400,640,l),
(560,640,l),
(560,160,l),
(640,160,l),
(640,0,l),
(80,0,l),
(80,480,l),
(240,480,l),
(240,160,l),
(400,160,l)
);
}
);
width = 640;
}
);
},
{
glyphname = "lamalef-arab.isol";
layers = (
{
anchors = (
{
name = "top-arab";
pos = (160,640);
},
{
name = "top-arab";
pos = (160,640);
},
{
name = "bottom-arab";
pos = (160,0);
},
{
name = "bottom-arab";
pos = (160,0);
}
);
layerId = m000;
shapes = (
{
closed = 1;
nodes = (
(560,0,l),
(80,0,l),
(80,160,l),
(400,160,l),
(400,640,l),
(560,640,l)
);
},
{
closed = 1;
nodes = (
(80,320,l),
(80,640,l),
(240,640,l),
(240,320,l)
);
}
);
width = 640;
}
);
unicode = 65275;
},
{
glyphname = "lamalef-arab.fina";
layers = (
{
anchors = (
{
name = "top-arab";
pos = (160,640);
},
{
name = "top-arab";
pos = (160,640);
},
{
name = "bottom-arab";
pos = (480,0);
},
{
name = "bottom-arab";
pos = (480,0);
}
);
layerId = m000;
shapes = (
{
closed = 1;
nodes = (
(400,640,l),
(560,640,l),
(560,160,l),
(640,160,l),
(640,0,l),
(80,0,l),
(80,160,l),
(400,160,l)
);
},
{
closed = 1;
nodes = (
(80,320,l),
(80,640,l),
(240,640,l),
(240,320,l)
);
}
);
width = 640;
}
);
unicode = 65276;
},
{
glyphname = "extendedarabicindiczero-arab";
layers = (
{
layerId = m000;
shapes = (
{
closed = 1;
nodes = (
(80,0,l),
(80,320,l),
(400,320,l),
(400,0,l)
);
}
);
width = 480;
}
);
unicode = 1776;
},
{
glyphname = "extendedarabicindicone-arab";
layers = (
{
layerId = m000;
shapes = (
{
closed = 1;
nodes = (
(80,640,l),
(80,0,l),
(240,0,l),
(240,640,l)
);
}
);
width = 320;
}
);
unicode = 1777;
},
{
glyphname = "extendedarabicindictwo-arab";
layers = (
{
layerId = m000;
shapes = (
{
closed = 1;
nodes = (
(560,280,l),
(240,280,l),
(240,0,l),
(80,0,l),
(80,640,l),
(240,640,l),
(240,440,l),
(400,440,l),
(400,640,l),
(560,640,l)
);
}
);
width = 640;
}
);
unicode = 1778;
},
{
glyphname = "extendedarabicindicthree-arab";
layers = (
{
layerId = m000;
shapes = (
{
closed = 1;
nodes = (
(800,280,l),
(240,280,l),
(240,0,l),
(80,0,l),
(80,640,l),
(240,640,l),
(240,440,l),
(360,440,l),
(360,640,l),
(520,640,l),
(520,440,l),
(640,440,l),
(640,640,l),
(800,640,l)
);
}
);
width = 880;
}
);
unicode = 1779;
},
{
glyphname = "extendedarabicindicfour-arab";
layers = (
{
layerId = m000;
shapes = (
{
closed = 1;
nodes = (
(240,200,l),
(240,0,l),
(80,0,l),
(80,640,l),
(240,640,l),
(240,360,l),
(360,360,l),
(360,640,l),
(640,640,l),
(640,480,l),
(520,480,l),
(520,360,l),
(640,360,l),
(640,200,l)
);
}
);
width = 720;
}
);
unicode = 1780;
},
{
glyphname = "extendedarabicindicfive-arab";
layers = (
{
layerId = m000;
shapes = (
{
closed = 1;
nodes = (
(600,480,l),
(240,480,l),
(240,160,l),
(360,160,l),
(360,320,l),
(480,320,l),
(480,160,l),
(600,160,l)
);
},
{
closed = 1;
nodes = (
(760,0,l),
(80,0,l),
(80,480,l),
(240,480,l),
(240,640,l),
(600,640,l),
(600,480,l),
(760,480,l)
);
}
);
width = 840;
}
);
unicode = 1781;
},
{
glyphname = "extendedarabicindicsix-arab";
layers = (
{
layerId = m000;
shapes = (
{
closed = 1;
nodes = (
(480,640,l),
(480,480,l),
(240,480,l),
(240,320,l),
(480,320,l),
(480,160,l),
(240,160,l),
(240,0,l),
(80,0,l),
(80,160,l),
(240,160,l),
(240,320,l),
(80,320,l),
(80,640,l)
);
}
);
width = 560;
}
);
unicode = 1782;
},
{
glyphname = "extendedarabicindicseven-arab";
layers = (
{
layerId = m000;
shapes = (
{
closed = 1;
nodes = (
(400,160,l),
(400,640,l),
(560,640,l),
(560,160,l),
(400,160,l),
(400,0,l),
(80,0,l),
(80,640,l),
(240,640,l),
(240,160,l)
);
}
);
width = 640;
}
);
unicode = 1783;
},
{
glyphname = "extendedarabicindiceight-arab";
layers = (
{
layerId = m000;
shapes = (
{
closed = 1;
nodes = (
(400,0,l),
(400,480,l),
(240,480,l),
(240,0,l),
(80,0,l),
(80,640,l),
(400,640,l),
(400,480,l),
(560,480,l),
(560,0,l)
);
}
);
width = 640;
}
);
unicode = 1784;
},
{
glyphname = "extendedarabicindicnine-arab";
layers = (
{
layerId = m000;
shapes = (
{
closed = 1;
nodes = (
(80,320,l),
(80,640,l),
(480,640,l),
(480,0,l),
(320,0,l),
(320,320,l)
);
}
);
width = 560;
}
);
unicode = 1785;
},
{
glyphname = "arabicindiczero-arab";
layers = (
{
layerId = m000;
shapes = (
{
closed = 1;
nodes = (
(80,0,l),
(80,320,l),
(400,320,l),
(400,0,l)
);
}
);
width = 480;
}
);
unicode = 1632;
},
{
glyphname = "arabicindicone-arab";
layers = (
{
layerId = m000;
shapes = (
{
closed = 1;
nodes = (
(80,640,l),
(80,0,l),
(240,0,l),
(240,640,l)
);
}
);
width = 320;
}
);
unicode = 1633;
},
{
glyphname = "arabicindictwo-arab";
layers = (
{
layerId = m000;
shapes = (
{
closed = 1;
nodes = (
(560,280,l),
(240,280,l),
(240,0,l),
(80,0,l),
(80,640,l),
(240,640,l),
(240,440,l),
(400,440,l),
(400,640,l),
(560,640,l)
);
}
);
width = 640;
}
);
unicode = 1634;
},
{
glyphname = "arabicindicthree-arab";
layers = (
{
layerId = m000;
shapes = (
{
closed = 1;
nodes = (
(800,280,l),
(240,280,l),
(240,0,l),
(80,0,l),
(80,640,l),
(240,640,l),
(240,440,l),
(360,440,l),
(360,640,l),
(520,640,l),
(520,440,l),
(640,440,l),
(640,640,l),
(800,640,l)
);
}
);
width = 880;
}
);
unicode = 1635;
},
{
glyphname = "arabicindicfour-arab";
layers = (
{
layerId = m000;
shapes = (
{
closed = 1;
nodes = (
(240,200,l),
(240,0,l),
(80,0,l),
(80,640,l),
(240,640,l),
(240,360,l),
(360,360,l),
(360,640,l),
(640,640,l),
(640,480,l),
(520,480,l),
(520,360,l),
(640,360,l),
(640,200,l)
);
}
);
width = 720;
}
);
unicode = 1636;
},
{
glyphname = "arabicindicfive-arab";
layers = (
{
layerId = m000;
shapes = (
{
closed = 1;
nodes = (
(600,480,l),
(240,480,l),
(240,160,l),
(360,160,l),
(360,320,l),
(480,320,l),
(480,160,l),
(600,160,l)
);
},
{
closed = 1;
nodes = (
(760,0,l),
(80,0,l),
(80,480,l),
(240,480,l),
(240,640,l),
(600,640,l),
(600,480,l),
(760,480,l)
);
}
);
width = 840;
}
);
unicode = 1637;
},
{
glyphname = "arabicindicsix-arab";
layers = (
{
layerId = m000;
shapes = (
{
closed = 1;
nodes = (
(480,640,l),
(480,480,l),
(240,480,l),
(240,320,l),
(480,320,l),
(480,160,l),
(240,160,l),
(240,0,l),
(80,0,l),
(80,160,l),
(240,160,l),
(240,320,l),
(80,320,l),
(80,640,l)
);
}
);
width = 560;
}
);
unicode = 1638;
},
{
glyphname = "arabicindicseven-arab";
layers = (
{
layerId = m000;
shapes = (
{
closed = 1;
nodes = (
(400,160,l),
(400,640,l),
(560,640,l),
(560,160,l),
(400,160,l),
(400,0,l),
(80,0,l),
(80,640,l),
(240,640,l),
(240,160,l)
);
}
);
width = 640;
}
);
unicode = 1639;
},
{
glyphname = "arabicindiceight-arab";
layers = (
{
layerId = m000;
shapes = (
{
closed = 1;
nodes = (
(400,0,l),
(400,480,l),
(240,480,l),
(240,0,l),
(80,0,l),
(80,640,l),
(400,640,l),
(400,480,l),
(560,480,l),
(560,0,l)
);
}
);
width = 640;
}
);
unicode = 1640;
},
{
glyphname = "arabicindicnine-arab";
layers = (
{
layerId = m000;
shapes = (
{
closed = 1;
nodes = (
(80,320,l),
(80,640,l),
(480,640,l),
(480,0,l),
(320,0,l),
(320,320,l)
);
}
);
width = 560;
}
);
unicode = 1641;
},
{
glyphname = uniE127;
layers = (
{
layerId = m000;
shapes = (
{
closed = 1;
nodes = (
(160,760,l),
(160,640,l),
(160,621,o),
(80,606,o),
(0,621,o),
(0,640,qs),
(0,760,l)
);
}
);
}
);
unicode = 57639;
},
{
glyphname = arabichamzacomb;
layers = (
{
anchors = (
{
name = "top-arab";
pos = (0,680);
},
{
name = "_top-arab";
pos = (0,680);
}
);
layerId = m000;
shapes = (
{
closed = 1;
nodes = (
(120,1040,l),
(120,1160,l),
(0,1160,l),
(0,920,l),
(120,920,l),
(120,800,l),
(-120,800,l),
(-120,1040,l),
(0,1040,l)
);
}
);
}
);
unicode = (1620,1652);
},
{
glyphname = arabicfathacomb;
layers = (
{
anchors = (
{
name = "top-arab";
pos = (0,680);
},
{
name = "_top-arab";
pos = (0,680);
}
);
layerId = m000;
shapes = (
{
closed = 1;
nodes = (
(160,920,l),
(0,920,l),
(0,800,l),
(-160,800,l),
(-160,920,l),
(0,920,l),
(0,1040,l),
(160,1040,l)
);
}
);
}
);
unicode = (1614,65142);
},
{
glyphname = arabickasracomb;
layers = (
{
anchors = (
{
name = "bottom-arab";
pos = (0,-360);
},
{
name = "_bottom-arab";
pos = (0,-360);
}
);
layerId = m000;
shapes = (
{
closed = 1;
nodes = (
(160,-600,l),
(0,-600,l),
(0,-720,l),
(-160,-720,l),
(-160,-600,l),
(0,-600,l),
(0,-480,l),
(160,-480,l)
);
}
);
}
);
unicode = (1616,65146);
},
{
glyphname = arabicdammacomb;
layers = (
{
anchors = (
{
name = "top-arab";
pos = (0,680);
},
{
name = "_top-arab";
pos = (0,680);
}
);
layerId = m000;
shapes = (
{
closed = 1;
nodes = (
(120,1200,l),
(120,920,l),
(0,920,l),
(0,800,l),
(-120,800,l),
(-120,920,l),
(0,920,l),
(0,1040,l),
(-120,1040,l),
(-120,1200,l)
);
}
);
}
);
unicode = (1615,65144);
},
{
glyphname = arabicdammatancomb;
layers = (
{
anchors = (
{
name = "top-arab";
pos = (0,680);
},
{
name = "_top-arab";
pos = (0,680);
}
);
layerId = m000;
shapes = (
{
closed = 1;
nodes = (
(280,1200,l),
(280,920,l),
(160,920,l),
(160,800,l),
(0,800,l),
(0,920,l),
(160,920,l),
(160,1040,l),
(0,1040,l),
(0,1200,l)
);
},
{
closed = 1;
nodes = (
(-80,1200,l),
(-80,800,l),
(-200,800,l),
(-200,1200,l)
);
}
);
}
);
unicode = (1612,65138);
},
{
glyphname = arabicshaddacomb;
layers = (
{
anchors = (
{
name = "top-arab";
pos = (0,680);
},
{
name = "_top-arab";
pos = (0,680);
}
);
layerId = m000;
shapes = (
{
closed = 1;
nodes = (
(40,920,l),
(40,1040,l),
(160,1040,l),
(160,800,l),
(-160,800,l),
(-160,1040,l),
(-40,1040,l),
(-40,920,l)
);
}
);
}
);
unicode = (1617,65148);
},
{
glyphname = arabicalefcomb;
layers = (
{
anchors = (
{
name = "top-arab";
pos = (0,680);
},
{
name = "_top-arab";
pos = (0,680);
}
);
layerId = m000;
shapes = (
{
closed = 1;
nodes = (
(-80,1120,l),
(-80,800,l),
(80,800,l),
(80,1120,l)
);
}
);
}
);
unicode = 1648;
},
{
glyphname = arabicsukuncomb;
layers = (
{
anchors = (
{
name = "top-arab";
pos = (0,680);
},
{
name = "_top-arab";
pos = (0,680);
}
);
layerId = m000;
shapes = (
{
closed = 1;
nodes = (
(80,1080,l),
(-80,1080,l),
(-80,920,l),
(80,920,l)
);
},
{
closed = 1;
nodes = (
(80,800,l),
(-80,800,l),
(-80,920,l),
(-200,920,l),
(-200,1080,l),
(-80,1080,l),
(-80,1200,l),
(80,1200,l),
(80,1080,l),
(200,1080,l),
(200,920,l),
(80,920,l)
);
}
);
}
);
unicode = (1618,65150);
},
{
glyphname = arabicmaddahcomb;
layers = (
{
layerId = m000;
shapes = (
{
closed = 1;
nodes = (
(200,120,l),
(200,240,l),
(-80,240,l),
(-80,120,l),
(-200,120,l),
(-200,0,l),
(-80,0,l),
(-80,120,l)
);
}
);
}
);
unicode = (1619,57360);
},
{
glyphname = uniE054;
layers = (
{
layerId = m000;
shapes = (
{
closed = 1;
nodes = (
(120,120,l),
(0,120,l),
(0,0,l),
(-120,0,l),
(-120,120,l),
(0,120,l),
(0,200,l),
(-120,200,l),
(-120,400,l),
(0,400,l),
(0,520,l),
(120,520,l),
(120,400,l),
(0,400,l),
(0,320,l),
(120,320,l)
);
}
);
}
);
unicode = 57428;
},
{
glyphname = "farsiyeh-arab.fina.1";
layers = (
{
anchors = (
{
name = "top-arab";
pos = (240,160);
},
{
name = "bottom-arab";
pos = (400,-320);
}
);
layerId = m000;
shapes = (
{
closed = 1;
nodes = (
(560,-160,l),
(560,0,l),
(400,0,l),
(400,160,l),
(640,160,l),
(640,0,l),
(720,0,l),
(720,-160,l),
(560,-160,l),
(560,-320,l),
(240,-320,l),
(240,-160,l),
(80,-160,l),
(80,160,l),
(240,160,l),
(240,-160,l)
);
}
);
width = 640;
}
);
unicode = 57430;
},
{
glyphname = uniE069;
layers = (
{
layerId = m000;
shapes = (
{
closed = 1;
nodes = (
(80,160,l),
(80,320,l),
(240,320,l),
(240,160,l),
(320,160,l),
(320,0,l),
(0,0,l),
(-19,0,o),
(-34,80,o),
(-19,160,o),
(0,160,qs)
);
}
);
width = 320;
}
);
unicode = 57449;
},
{
glyphname = uniE094;
layers = (
{
layerId = m000;
shapes = (
{
closed = 1;
nodes = (
(120,320,l),
(120,200,l),
(0,200,l),
(0,120,l),
(120,120,l),
(120,0,l),
(-120,0,l),
(-120,200,l),
(0,200,l),
(0,320,l)
);
}
);
}
);
unicode = 57492;
},
{
glyphname = ornateparenleft;
layers = (
{
layerId = m000;
shapes = (
{
closed = 1;
nodes = (
(400,160,l),
(560,160,l),
(560,0,l),
(400,0,l),
(400,160,l),
(240,160,l),
(240,320,l),
(80,320,l),
(80,480,l),
(240,480,l),
(240,640,l),
(400,640,l),
(400,800,l),
(560,800,l),
(560,640,l),
(400,640,l)
);
}
);
width = 640;
}
);
unicode = 64830;
},
{
glyphname = ornateparenright;
layers = (
{
layerId = m000;
shapes = (
{
closed = 1;
nodes = (
(240,160,l),
(80,160,l),
(80,0,l),
(240,0,l),
(240,160,l),
(400,160,l),
(400,320,l),
(560,320,l),
(560,480,l),
(400,480,l),
(400,640,l),
(240,640,l),
(240,800,l),
(80,800,l),
(80,640,l),
(240,640,l)
);
}
);
width = 600;
}
);
unicode = 64831;
},
{
glyphname = uE019;
layers = (
{
layerId = m000;
shapes = (
{
closed = 1;
nodes = (
(160,160,l),
(160,320,l),
(320,320,l),
(320,0,l),
(0,0,l),
(-19,0,o),
(-34,80,o),
(-19,160,o),
(0,160,qs)
);
}
);
width = 400;
}
);
unicode = 57369;
},
{
glyphname = uE020;
layers = (
{
layerId = m000;
shapes = (
{
closed = 1;
nodes = (
(160,160,l),
(160,320,l),
(320,320,l),
(320,160,l),
(400,160,l),
(400,0,l),
(0,0,l),
(-19,0,o),
(-34,80,o),
(-19,160,o),
(0,160,qs)
);
}
);
width = 400;
}
);
unicode = 57376;
},
{
glyphname = "vowelsignsmallvcomb-arab";
layers = (
{
layerId = m000;
shapes = (
{
closed = 1;
nodes = (
(-200,1040,l),
(-80,1040,l),
(-80,920,l),
(80,920,l),
(80,1040,l),
(200,1040,l),
(200,920,l),
(80,920,l),
(80,800,l),
(-80,800,l),
(-80,920,l),
(-200,920,l)
);
}
);
}
);
unicode = 1626;
},
{
glyphname = "vowelsigninvertedsmallvcomb-arab";
layers = (
{
layerId = m000;
shapes = (
{
closed = 1;
nodes = (
(200,800,l),
(80,800,l),
(80,920,l),
(-80,920,l),
(-80,800,l),
(-200,800,l),
(-200,920,l),
(-80,920,l),
(-80,1040,l),
(80,1040,l),
(80,920,l),
(200,920,l)
);
}
);
}
);
unicode = 1627;
},
{
glyphname = uE055;
layers = (
{
layerId = m000;
shapes = (
{
closed = 1;
nodes = (
(160,160,l),
(0,160,l),
(0,80,l),
(160,80,l)
);
},
{
closed = 1;
nodes = (
(240,80,l),
(160,80,l),
(160,0,l),
(0,0,l),
(0,80,l),
(-120,80,l),
(-120,0,l),
(-200,0,l),
(-200,80,l),
(-120,80,l),
(-120,160,l),
(0,160,l),
(0,240,l),
(160,240,l),
(160,160,l),
(240,160,l)
);
}
);
}
);
unicode = 57429;
},
{
glyphname = "smallhightahcomb-arab";
layers = (
{
layerId = m000;
shapes = (
{
closed = 1;
nodes = (
(160,800,l),
(-160,800,l),
(-160,1240,l),
(-40,1240,l),
(-40,1040,l),
(160,1040,l)
);
}
);
}
);
unicode = (1557,57535,64448);
},
{
glyphname = "waw-arab.calt";
layers = (
{
anchors = (
{
name = "top-arab";
pos = (240,320);
},
{
name = "bottom-arab";
pos = (240,-320);
}
);
layerId = m000;
shapes = (
{
closed = 1;
nodes = (
(400,320,l),
(400,-160,l),
(240,-160,l),
(240,-320,l),
(40,-320,l),
(40,-160,l),
(240,-160,l),
(240,0,l),
(80,0,l),
(80,320,l)
);
}
);
width = 480;
}
);
unicode = 57456;
},
{
glyphname = "waw-arab.fina.1";
layers = (
{
anchors = (
{
name = "top-arab";
pos = (240,320);
},
{
name = "bottom-arab";
pos = (240,-320);
}
);
layerId = m000;
shapes = (
{
closed = 1;
nodes = (
(400,320,l),
(400,160,l),
(480,160,l),
(480,0,l),
(400,0,l),
(400,-160,l),
(240,-160,l),
(240,-320,l),
(40,-320,l),
(40,-160,l),
(240,-160,l),
(240,0,l),
(80,0,l),
(80,320,l)
);
}
);
width = 480;
}
);
unicode = 57457;
},
{
glyphname = "reh-arab.calt";
layers = (
{
anchors = (
{
name = "top-arab";
pos = (320,320);
},
{
name = "bottom-arab";
pos = (240,-320);
}
);
layerId = m000;
shapes = (
{
closed = 1;
nodes = (
(400,320,l),
(400,-160,l),
(240,-160,l),
(240,-320,l),
(40,-320,l),
(40,-160,l),
(240,-160,l),
(240,320,l)
);
}
);
width = 480;
}
);
unicode = 57472;
},
{
glyphname = "reh-arab.fina.1";
layers = (
{
anchors = (
{
name = "top-arab";
pos = (240,320);
},
{
name = "bottom-arab";
pos = (240,-320);
}
);
layerId = m000;
shapes = (
{
closed = 1;
nodes = (
(400,0,l),
(400,-160,l),
(240,-160,l),
(240,-320,l),
(40,-320,l),
(40,-160,l),
(240,-160,l),
(240,320,l),
(400,320,l),
(400,160,l),
(480,160,l),
(480,0,l)
);
}
);
width = 480;
}
);
unicode = 57473;
},
{
glyphname = "fullstop-arab";
layers = (
{
layerId = m000;
shapes = (
{
closed = 1;
nodes = (
(320,0,l),
(320,-160,l),
(0,-160,l),
(0,0,l)
);
}
);
width = 480;
}
);
unicode = 1748;
},
{
glyphname = degree;
layers = (
{
layerId = m000;
shapes = (
{
closed = 1;
nodes = (
(200,520,l),
(80,520,l),
(80,400,l),
(200,400,l),
(200,280,l),
(320,280,l),
(320,400,l),
(440,400,l),
(440,520,l),
(320,520,l),
(320,640,l),
(200,640,l)
);
},
{
closed = 1;
nodes = (
(320,520,l),
(320,400,l),
(200,400,l),
(200,520,l)
);
}
);
width = 520;
}
);
unicode = 176;
},
{
glyphname = "swashkaf-arab";
layers = (
{
anchors = (
{
name = "top-arab";
pos = (160,320);
},
{
name = "bottom-arab";
pos = (560,0);
}
);
layerId = m000;
shapes = (
{
closed = 1;
nodes = (
(960,0,l),
(80,0,l),
(80,320,l),
(240,320,l),
(240,160,l),
(560,160,l),
(560,320,l),
(400,320,l),
(400,480,l),
(560,480,l),
(560,640,l),
(960,640,l),
(960,480,l),
(560,480,l),
(560,320,l),
(960,320,l)
);
}
);
width = 1040;
}
);
unicode = 1706;
},
{
glyphname = "swashkaf-arab.fina";
layers = (
{
anchors = (
{
name = "top-arab";
pos = (160,320);
},
{
name = "bottom-arab";
pos = (560,0);
}
);
layerId = m000;
shapes = (
{
closed = 1;
nodes = (
(560,640,l),
(960,640,l),
(960,480,l),
(560,480,l),
(560,320,l),
(960,320,l),
(960,160,l),
(1040,160,l),
(1040,0,l),
(80,0,l),
(80,320,l),
(240,320,l),
(240,160,l),
(560,160,l),
(560,320,l),
(400,320,l),
(400,480,l),
(560,480,l)
);
}
);
width = 1040;
}
);
unicode = 57496;
},
{
glyphname = "swashkaf-arab.init";
layers = (
{
anchors = (
{
name = "top-arab";
pos = (240,640);
},
{
name = "bottom-arab";
pos = (240,0);
}
);
layerId = m000;
shapes = (
{
closed = 1;
nodes = (
(240,640,l),
(640,640,l),
(640,480,l),
(240,480,l),
(240,320,l),
(640,320,l),
(640,0,l),
(0,0,l),
(-19,0,o),
(-34,80,o),
(-19,160,o),
(0,160,qs),
(240,160,l),
(240,320,l),
(80,320,l),
(80,480,l),
(240,480,l)
);
}
);
width = 720;
}
);
unicode = 57497;
},
{
glyphname = "swashkaf-arab.medi";
layers = (
{
anchors = (
{
name = "top-arab";
pos = (240,640);
},
{
name = "bottom-arab";
pos = (240,0);
}
);
layerId = m000;
shapes = (
{
closed = 1;
nodes = (
(240,640,l),
(640,640,l),
(640,480,l),
(240,480,l),
(240,320,l),
(640,320,l),
(640,160,l),
(720,160,l),
(720,0,l),
(0,0,l),
(-19,0,o),
(-34,80,o),
(-19,160,o),
(0,160,qs),
(240,160,l),
(240,320,l),
(80,320,l),
(80,480,l),
(240,480,l)
);
}
);
width = 720;
}
);
unicode = 57504;
},
{
glyphname = uE093;
layers = (
{
anchors = (
{
name = "top-arab";
pos = (240,160);
},
{
name = "bottom-arab";
pos = (240,0);
}
);
layerId = m000;
shapes = (
{
closed = 1;
nodes = (
(640,160,l),
(640,0,l),
(0,0,l),
(-19,0,o),
(-34,80,o),
(-19,160,o),
(0,160,qs)
);
}
);
width = 640;
}
);
unicode = 57491;
},
{
glyphname = uE063;
layers = (
{
anchors = (
{
name = "top-arab";
pos = (240,160);
},
{
name = "bottom-arab";
pos = (240,0);
}
);
layerId = m000;
shapes = (
{
closed = 1;
nodes = (
(480,160,l),
(480,0,l),
(0,0,l),
(-19,0,o),
(-34,80,o),
(-19,160,o),
(0,160,qs)
);
}
);
width = 480;
}
);
unicode = 57443;
},
{
glyphname = "extendedarabicindicfour-arab.locl";
layers = (
{
layerId = m000;
shapes = (
{
closed = 1;
nodes = (
(720,440,l),
(560,440,l),
(560,240,l),
(400,240,l),
(400,440,l),
(240,440,l),
(240,0,l),
(80,0,l),
(80,440,l),
(240,440,l),
(240,640,l),
(400,640,l),
(400,440,l),
(560,440,l),
(560,640,l),
(720,640,l)
);
}
);
width = 800;
}
);
unicode = 57446;
},
{
glyphname = "extendedarabicindicseven-arab.locl";
layers = (
{
layerId = m000;
shapes = (
{
closed = 1;
nodes = (
(560,160,l),
(560,0,l),
(80,0,l),
(80,320,l),
(240,320,l),
(240,480,l),
(400,480,l),
(400,640,l),
(560,640,l),
(560,480,l),
(400,480,l),
(400,320,l),
(240,320,l),
(240,160,l)
);
}
);
width = 640;
}
);
unicode = 57447;
},
